<?xml version="1.0" encoding="utf-8"?>
<!-- Generator: Adobe Illustrator 22.1.0, SVG Export Plug-In . SVG Version: 6.00 Build 0)  -->
<svg version="1.1" id="Capa_1" xmlns="http://www.w3.org/2000/svg" xmlns:xlink="http://www.w3.org/1999/xlink" x="0px" y="0px"
	 viewBox="0 0 512 512" style="enable-background:new 0 0 512 512;" xml:space="preserve">
<style type="text/css">
	.st0{fill:url(#SVGID_1_);}
	.st1{fill:url(#SVGID_2_);}
	.st2{fill:url(#SVGID_3_);}
	.st3{fill:url(#SVGID_4_);}
	.st4{fill:url(#SVGID_5_);}
</style>
<g>
	<g>
		<linearGradient id="SVGID_1_" gradientUnits="userSpaceOnUse" x1="49.2552" y1="536.9479" x2="517.2552" y2="64.9479">
			<stop  offset="0" style="stop-color:#F51C1C"/>
			<stop  offset="1" style="stop-color:#FE8605"/>
		</linearGradient>
		<path class="st0" d="M479.4,240c0-3.7-3-6.6-6.6-6.6H311.3V178c0-3.7-3-6.6-6.6-6.6h-44.2h-11v-24.3c0-7.5-1.5-14.7-4.3-21.5
			c-2.8-6.6-6.8-12.5-11.9-17.6c-5.1-5.1-11-9.1-17.6-11.8c-6.8-2.9-14.1-4.3-21.5-4.3c-7.5,0-14.7,1.5-21.5,4.3
			c-0.2,0.1-0.3,0.2-0.5,0.2c-0.2-0.1-0.3-0.2-0.5-0.2c-6.8-2.9-14.1-4.3-21.5-4.3c-7.5,0-14.7,1.5-21.5,4.3
			c-6.6,2.8-12.5,6.8-17.6,11.8c-5.1,5.1-9.1,11-11.8,17.6c-2.9,6.8-4.3,14.1-4.3,21.5v24.3H39.2c-3.7,0-6.6,3-6.6,6.6v0v0v300.8
			c0,3.7,3,6.6,6.6,6.6h221c0.1,0,0.1,0,0.2,0h44.2h0h0h168.1c3.7,0,6.6-3,6.6-6.6c0-0.1,0-0.1,0-0.2c0-0.1,0-0.1,0-0.2L479.4,240
			L479.4,240z M194.1,105c11.2,0,21.8,4.4,29.7,12.3c7.9,7.9,12.3,18.5,12.3,29.7v24.3h-30.8v-24.3c0-7.5-1.5-14.7-4.4-21.5
			c-2.8-6.6-6.8-12.5-11.8-17.6c-0.8-0.8-1.6-1.5-2.4-2.3C189.1,105.3,191.6,105,194.1,105z M172,111.3c2.7,1.7,5.3,3.7,7.7,6.1
			c7.9,7.9,12.3,18.5,12.3,29.7v24.3h-40v-24.3c0-11.2,4.4-21.8,12.3-29.7C166.7,115,169.3,113,172,111.3z M120.3,117.4
			c7.9-7.9,18.5-12.3,29.7-12.3c2.5,0,5,0.2,7.4,0.7c-0.8,0.7-1.6,1.5-2.4,2.3c-5.1,5.1-9.1,11-11.9,17.6
			c-2.9,6.8-4.3,14.1-4.3,21.5v24.3H108v-24.3h0C108,135.9,112.3,125.3,120.3,117.4z M253.8,472.2H45.9V184.7h48.8v46.5
			c0,3.7,3,6.6,6.6,6.6c3.7,0,6.6-3,6.6-6.6v-46.5h37.4c0,0,0,0,0.1,0c0,0,0,0,0.1,0H192v46.5c0,3.7,3,6.6,6.6,6.6
			c3.7,0,6.6-3,6.6-6.6v-46.5h37.4c0,0,0,0,0.1,0c0,0,0,0,0.1,0h11V472.2z M298,472.2h-31V184.7h31V472.2z M421.9,472.2H311.3V316.9
			c4.5-0.6,8.9-1.8,13.2-3.6c6.1-2.6,11.5-6.2,16.2-10.9c4.7-4.7,8.3-10.1,10.9-16.2c2.7-6.3,4-12.9,4-19.8c0-3.7-3-6.6-6.6-6.6
			c-3.7,0-6.6,3-6.6,6.6c0,10-3.9,19.5-11,26.6c-5.5,5.5-12.4,9.1-20,10.4v-56.9h110.6L421.9,472.2L421.9,472.2z M466.1,472.2h-31
			V246.6h31V472.2z"/>
	</g>
</g>
<g>
	<g>
		<linearGradient id="SVGID_2_" gradientUnits="userSpaceOnUse" x1="-13.0229" y1="475.1976" x2="454.9771" y2="3.1976">
			<stop  offset="0" style="stop-color:#F51C1C"/>
			<stop  offset="1" style="stop-color:#FE8605"/>
		</linearGradient>
		<path class="st1" d="M379.9,59C368.9,59,360,68,360,79s8.9,19.9,19.9,19.9c11,0,19.9-8.9,19.9-19.9S390.8,59,379.9,59z
			 M379.9,85.6c-3.7,0-6.6-3-6.6-6.6s3-6.6,6.6-6.6s6.6,3,6.6,6.6S383.5,85.6,379.9,85.6z"/>
	</g>
</g>
<g>
	<g>
		<linearGradient id="SVGID_3_" gradientUnits="userSpaceOnUse" x1="40.285" y1="528.0538" x2="508.285" y2="56.0538">
			<stop  offset="0" style="stop-color:#F51C1C"/>
			<stop  offset="1" style="stop-color:#FE8605"/>
		</linearGradient>
		<path class="st2" d="M432.9,112.1c-11,0-19.9,8.9-19.9,19.9c0,11,8.9,19.9,19.9,19.9c11,0,19.9-8.9,19.9-19.9
			C452.9,121.1,443.9,112.1,432.9,112.1z M432.9,138.7c-3.7,0-6.6-3-6.6-6.6s3-6.6,6.6-6.6s6.6,3,6.6,6.6S436.6,138.7,432.9,138.7z"
			/>
	</g>
</g>
<g>
	<g>
		<linearGradient id="SVGID_4_" gradientUnits="userSpaceOnUse" x1="13.6319" y1="501.6266" x2="481.6319" y2="29.6266">
			<stop  offset="0" style="stop-color:#F51C1C"/>
			<stop  offset="1" style="stop-color:#FE8605"/>
		</linearGradient>
		<path class="st3" d="M450.9,61c-2.6-2.6-6.8-2.6-9.4,0l-79.6,79.6c-2.6,2.6-2.6,6.8,0,9.4c1.3,1.3,3,1.9,4.7,1.9
			c1.7,0,3.4-0.6,4.7-1.9l79.6-79.6C453.5,67.8,453.5,63.6,450.9,61z"/>
	</g>
</g>
<g>
	<g>
		<linearGradient id="SVGID_5_" gradientUnits="userSpaceOnUse" x1="11.4163" y1="499.4297" x2="479.4164" y2="27.4298">
			<stop  offset="0" style="stop-color:#F51C1C"/>
			<stop  offset="1" style="stop-color:#FE8605"/>
		</linearGradient>
		<path class="st4" d="M472.8,32.5H340c-3.7,0-6.6,3-6.6,6.6c0,0.4,0,0.7,0.1,1.1c-0.1,0.4-0.1,0.7-0.1,1.1v42c0,3.7,3,6.6,6.6,6.6
			c3.7,0,6.6-3,6.6-6.6V45.8h119.4V159l-59.7,31.9L346.7,159v-49.1c0-3.7-3-6.6-6.6-6.6c-3.7,0-6.6,3-6.6,6.6v53c0,0.2,0,0.5,0,0.7
			c0.1,0.8,0.3,1.6,0.7,2.4c0,0,0,0.1,0.1,0.1c0,0,0,0.1,0.1,0.1c0.6,1.1,1.5,2,2.7,2.6l66.4,35.4c1,0.5,2,0.8,3.1,0.8
			s2.2-0.3,3.1-0.8l66.4-35.4c1-0.5,1.8-1.2,2.3-2.1c0,0,0,0,0-0.1c0.1-0.1,0.1-0.2,0.2-0.3c0.1-0.1,0.1-0.2,0.2-0.3
			c0,0,0-0.1,0.1-0.1c0.4-0.9,0.7-1.8,0.7-2.9c0,0,0,0,0-0.1c0,0,0,0,0,0V39.1C479.4,35.5,476.4,32.5,472.8,32.5z"/>
	</g>
</g>
</svg>
