<svg xmlns="http://www.w3.org/2000/svg" width="40" height="40" viewBox="0 0 40 40">
  <metadata><?xpacket begin="﻿" id="W5M0MpCehiHzreSzNTczkc9d"?>
<x:xmpmeta xmlns:x="adobe:ns:meta/" x:xmptk="Adobe XMP Core 5.6-c140 79.160451, 2017/05/06-01:08:21        ">
   <rdf:RDF xmlns:rdf="http://www.w3.org/1999/02/22-rdf-syntax-ns#">
      <rdf:Description rdf:about=""/>
   </rdf:RDF>
</x:xmpmeta>
                                                                                                    
                                                                                                    
                                                                                                    
                                                                                                    
                                                                                                    
                                                                                                    
                                                                                                    
                                                                                                    
                                                                                                    
                                                                                                    
                                                                                                    
                                                                                                    
                                                                                                    
                                                                                                    
                                                                                                    
                                                                                                    
                                                                                                    
                                                                                                    
                                                                                                    
                                                                                                    
                           
<?xpacket end="w"?></metadata>
<defs>
    <style>
      .cls-1 {
        fill: #fff;
        fill-rule: evenodd;
      }
    </style>
  </defs>
  <path id="fb" class="cls-1" d="M1068.85,2943.01h1.51a3.548,3.548,0,0,1,.81.03h0.48v0.03c0.31,0.02.62,0.04,0.94,0.07,0.51,0.08,1.03.17,1.54,0.25v0.04h0.13v0.03h0.16v0.03h0.13v0.03h0.13v0.03a2.886,2.886,0,0,0,.29.04v0.03h0.1v0.03l0.26,0.03v0.04l0.22,0.03v0.03h0.1v0.03c0.1,0.02.21,0.05,0.32,0.07v0.03h0.13v0.03h0.1v0.03h0.09v0.04h0.1v0.03l0.19,0.03v0.03h0.07v0.03a1.286,1.286,0,0,0,.19.04v0.03l0.19,0.03v0.03h0.07v0.04h0.09v0.03h0.07v0.03h0.1v0.03h0.06v0.04h0.1v0.03h0.06v0.03h0.1v0.03h0.06v0.03h0.1v0.04l0.13,0.03v0.03h0.1v0.03c0.06,0.02.12,0.05,0.19,0.07v0.03l0.16,0.03v0.03h0.06v0.04c0.05,0.01.09,0.02,0.13,0.03v0.03c0.05,0.01.09,0.02,0.13,0.03v0.04h0.07v0.03h0.06v0.03h0.07v0.03H1079v0.03c0.17,0.08.34,0.16,0.52,0.23a0.488,0.488,0,0,1,.03.07h0.06v0.03h0.07l0.06,0.06h0.07a0.488,0.488,0,0,1,.03.07c0.06,0.02.13,0.04,0.19,0.06a0.488,0.488,0,0,1,.03.07h0.07l0.06,0.06h0.07v0.03l0.09,0.03a0.435,0.435,0,0,0,.04.07h0.06v0.03h0.07a0.488,0.488,0,0,1,.03.07c0.04,0.01.08,0.02,0.13,0.03l0.03,0.06h0.06a0.251,0.251,0,0,0,.04.07h0.06l0.03,0.06h0.07v0.03c0.03,0.01.06,0.03,0.09,0.04a0.209,0.209,0,0,0,.04.06h0.06l0.03,0.06h0.07a0.488,0.488,0,0,0,.03.07h0.06v0.03c0.04,0.01.07,0.02,0.1,0.03a0.488,0.488,0,0,0,.03.07h0.07a0.879,0.879,0,0,1,.06.1h0.07l0.03,0.06h0.06l0.03,0.06a1.037,1.037,0,0,1,.1.04,0.55,0.55,0,0,0,.07.09h0.06a0.879,0.879,0,0,0,.06.1h0.07a0.879,0.879,0,0,1,.06.1h0.07c0.03,0.04.06,0.08,0.1,0.13h0.06a1.059,1.059,0,0,0,.1.12h0.06a1.47,1.47,0,0,0,.1.13h0.06a0.359,0.359,0,0,0,.07.1l0.09,0.06v0.04H1083c0.05,0.06.1,0.13,0.16,0.19h0.06l0.23,0.26a6.5,6.5,0,0,1,.71.68,5.811,5.811,0,0,1,.64.67l0.26,0.23v0.06h0.03c0.04,0.05.07,0.09,0.1,0.13a0.865,0.865,0,0,0,.1.07v0.06c0.05,0.04.1,0.09,0.16,0.13v0.07a1.463,1.463,0,0,0,.13.09v0.07a1.463,1.463,0,0,0,.13.09v0.07l0.12,0.09v0.07a0.879,0.879,0,0,1,.1.06v0.07c0.03,0.02.07,0.04,0.1,0.06v0.07l0.09,0.06a0.418,0.418,0,0,1,.04.1l0.06,0.03v0.07a0.488,0.488,0,0,0,.07.03v0.06a0.55,0.55,0,0,1,.09.07v0.06h0.03a0.418,0.418,0,0,1,.04.1l0.06,0.03v0.06a0.607,0.607,0,0,0,.1.07v0.06a0.209,0.209,0,0,1,.06.04l0.03,0.09h0.04c0.01,0.05.02,0.09,0.03,0.13l0.06,0.03v0.07a0.488,0.488,0,0,1,.07.03c0.01,0.03.02,0.06,0.03,0.1h0.03c0.01,0.04.02,0.08,0.03,0.13h0.04l0.03,0.09a0.209,0.209,0,0,1,.06.04v0.06h0.04v0.06c0.02,0.01.04,0.03,0.06,0.04,0.01,0.04.02,0.08,0.03,0.13,0.02,0.01.05,0.02,0.07,0.03v0.06l0.06,0.07v0.06a0.488,0.488,0,0,0,.07.03v0.07h0.03v0.06l0.06,0.07v0.06c0.02,0.01.05,0.02,0.07,0.03,0.07,0.18.15,0.35,0.22,0.52h0.04c0.01,0.04.02,0.09,0.03,0.13h0.03c0.01,0.04.02,0.08,0.03,0.13h0.03v0.06h0.04v0.07h0.03v0.06h0.03v0.07h0.03a0.564,0.564,0,0,0,.04.12h0.03v0.07h0.03v0.1h0.03v0.06h0.03a0.647,0.647,0,0,1,.04.13h0.03v0.1h0.03c0.01,0.04.02,0.08,0.03,0.13h0.04v0.09h0.03c0.01,0.05.02,0.09,0.03,0.13h0.03v0.1h0.03v0.06h0.04c0.01,0.06.02,0.11,0.03,0.16h0.03c0.01,0.07.02,0.13,0.03,0.2h0.04v0.06h0.03c0.01,0.07.02,0.13,0.03,0.2h0.03v0.06h0.03c0.03,0.1.05,0.19,0.07,0.29h0.03v0.1h0.03v0.09h0.04v0.1h0.03v0.1h0.03V2957h0.03v0.1h0.03a1.846,1.846,0,0,1,.04.23h0.03c0.03,0.15.06,0.3,0.1,0.45h0.03c0.01,0.08.02,0.17,0.03,0.26,0.14,0.4.2,0.9,0.32,1.32,0.01,0.13.02,0.26,0.04,0.39,0.07,0.26.08,0.63,0.16,0.9v0.32h0.03v0.32h0.03v0.46h0.03v1.67a3.794,3.794,0,0,1-.03.84l-0.03.81h-0.03v0.29h-0.04v0.26c-0.12.42-.13,0.94-0.25,1.35-0.01.11-.03,0.22-0.04,0.32h-0.03c-0.01.1-.02,0.2-0.03,0.29h-0.03v0.13h-0.04v0.13h-0.03v0.13h-0.03v0.13h-0.03v0.13h-0.03v0.09h-0.04c-0.01.09-.02,0.18-0.03,0.26-0.21.63-.43,1.25-0.64,1.87h-0.04v0.07h-0.03v0.09h-0.03v0.07h-0.03v0.1h-0.03a0.5,0.5,0,0,0-.04.13h-0.03V2971h-0.03v0.07h-0.03v0.06h-0.04v0.07h-0.03v0.09h-0.03v0.07h-0.03v0.06h-0.03v0.07h-0.04c-0.02.06-.04,0.12-0.06,0.19h-0.03v0.1h-0.04c-0.02.06-.04,0.12-0.06,0.19h-0.03v0.06h-0.03a0.929,0.929,0,0,0-.04.13,0.209,0.209,0,0,0-.06.04v0.06l-0.07.06v0.07h-0.03v0.06h-0.03v0.07h-0.03c-0.01.04-.02,0.08-0.03,0.13a0.488,0.488,0,0,0-.07.03v0.06h-0.03v0.07l-0.07.06v0.07l-0.06.03c-0.01.04-.02,0.09-0.03,0.13-0.02.01-.05,0.02-0.07,0.03-0.01.04-.02,0.09-0.03,0.13l-0.06.03c-0.01.04-.03,0.09-0.04,0.13l-0.06.03v0.07h-0.03v0.06h-0.04c-0.01.03-.02,0.07-0.03,0.1l-0.06.03c-0.01.04-.02,0.09-0.03,0.13h-0.04c-0.01.03-.02,0.06-0.03,0.1l-0.06.03v0.06c-0.02.01-.05,0.03-0.07,0.04v0.06l-0.06.03v0.07h-0.03c-0.01.03-.03,0.06-0.04,0.09-0.02.01-.04,0.03-0.06,0.04v0.06a0.607,0.607,0,0,0-.1.07v0.06l-0.06.03v0.07c-0.03.02-.07,0.04-0.1,0.06v0.07l-0.06.03v0.06c-0.02.01-.05,0.02-0.07,0.03-0.01.04-.02,0.07-0.03,0.1-0.03.02-.06,0.04-0.1,0.07v0.06c-0.04.03-.08,0.06-0.13,0.1l-0.03.09c-0.02.01-.04,0.03-0.06,0.04v0.06a1.47,1.47,0,0,0-.13.1v0.06c-0.06.04-.11,0.09-0.16,0.13v0.07c-0.06.04-.11,0.08-0.16,0.12v0.07c-0.07.05-.13,0.11-0.2,0.16v0.06c-0.08.08-.17,0.16-0.25,0.23v0.06l-0.49.46V2977a1.47,1.47,0,0,1-.13.1c-0.07.08-.15,0.17-0.22,0.26h-0.07l-0.45.48h-0.06l-0.23.26h-0.06c-0.06.06-.11,0.13-0.16,0.19h-0.07l-0.13.16h-0.06c-0.05.06-.09,0.11-0.13,0.16h-0.07a1.463,1.463,0,0,1-.09.13h-0.07c-0.02.03-.04,0.07-0.06,0.1h-0.07c-0.03.04-.06,0.09-0.09,0.13h-0.07a0.879,0.879,0,0,0-.06.1l-0.1.03-0.03.06h-0.07a0.488,0.488,0,0,0-.03.07h-0.06a0.55,0.55,0,0,1-.07.09h-0.06c-0.01.02-.02,0.05-0.03,0.07h-0.07l-0.06.09h-0.07a0.488,0.488,0,0,1-.03.07c-0.03.01-.06,0.02-0.1,0.03v0.03h-0.06c-0.01.02-.02,0.05-0.03,0.07h-0.07l-0.03.06h-0.06a0.251,0.251,0,0,1-.04.07h-0.06l-0.03.06c-0.05.01-.09,0.02-0.13,0.03v0.04l-0.1.03-0.03.06-0.13.03a0.488,0.488,0,0,1-.03.07l-0.13.03a0.488,0.488,0,0,0-.03.07c-0.05.01-.09,0.02-0.13,0.03l-0.03.06a0.5,0.5,0,0,0-.13.04,0.209,0.209,0,0,1-.04.06h-0.06v0.03h-0.06l-0.07.07h-0.06a0.209,0.209,0,0,1-.04.06h-0.06l-0.06.07h-0.07v0.03h-0.06v0.03h-0.07v0.03c-0.04.01-.08,0.02-0.13,0.03a0.488,0.488,0,0,1-.03.07c-0.04.01-.08,0.02-0.13,0.03v0.03h-0.06v0.04l-0.2.06v0.03h-0.09v0.03h-0.07v0.04h-0.06v0.03h-0.07v0.03c-0.06.02-.12,0.04-0.19,0.07v0.03h-0.1v0.03h-0.06v0.03a0.647,0.647,0,0,0-.13.04v0.03h-0.1v0.03l-0.12.03v0.03h-0.1v0.04h-0.07v0.03h-0.09v0.03h-0.07v0.03a1.244,1.244,0,0,0-.16.04v0.03h-0.1v0.03h-0.06v0.03l-0.19.03v0.04h-0.07v0.03h-0.09v0.03h-0.1v0.03h-0.1v0.04h-0.09v0.03h-0.1V2982h-0.1v0.03h-0.09v0.03h-0.1v0.04H1076v0.03h-0.09v0.03c-0.11.02-.22,0.04-0.33,0.07v0.03l-0.35.06v0.03a2.336,2.336,0,0,1-.26.04v0.03h-0.13v0.03h-0.13v0.03h-0.13v0.04l-0.29.03v0.03h-0.16c-0.32.1-.73,0.13-1.06,0.23h-0.23v0.03h-0.22v0.03h-0.26v0.03h-0.29v0.04h-0.36v0.03h-0.45V2983h-2.51v-0.03h-0.45v-0.03c-0.22-.02-0.43-0.03-0.65-0.04-0.64-.1-1.29-0.21-1.93-0.32v-0.03l-0.29-.03v-0.04l-0.26-.03v-0.03l-0.26-.03v-0.04h-0.13v-0.03h-0.09v-0.03l-0.23-.03v-0.03h-0.13v-0.04h-0.09v-0.03h-0.13v-0.03h-0.1v-0.03h-0.1v-0.04h-0.09v-0.03h-0.1V2982h-0.1v-0.03h-0.09v-0.03c-0.1-.03-0.2-0.05-0.29-0.07v-0.03h-0.07v-0.03a1.286,1.286,0,0,1-.19-0.04v-0.03h-0.07v-0.03l-0.19-.03v-0.03a0.936,0.936,0,0,0-.16-0.04v-0.03h-0.07v-0.03h-0.09v-0.03c-0.04-.01-0.09-0.03-0.13-0.04v-0.03h-0.1v-0.03c-0.04-.01-0.08-0.02-0.13-0.03v-0.03h-0.09v-0.04h-0.07v-0.03c-0.04-.01-0.08-0.02-0.13-0.03v-0.03h-0.09v-0.04h-0.07v-0.03c-0.04-.01-0.08-0.02-0.13-0.03v-0.03a0.929,0.929,0,0,1-.13-0.04v-0.03l-0.12-.03v-0.03h-0.07v-0.03h-0.06v-0.04h-0.07v-0.03h-0.06v-0.03h-0.07v-0.03h-0.06v-0.04h-0.07v-0.03h-0.06v-0.03h-0.06v-0.03h-0.07l-0.06-.07h-0.07l-0.03-.06h-0.07v-0.03h-0.06l-0.06-.07h-0.07l-0.03-.06c-0.07-.02-0.13-0.05-0.19-0.07-0.01-.02-0.03-0.04-0.04-0.06-0.04-.01-0.08-0.02-0.13-0.03a0.488,0.488,0,0,0-.03-0.07c-0.04-.01-0.08-0.02-0.13-0.03v-0.03a0.355,0.355,0,0,1-.09-0.04,0.209,0.209,0,0,0-.04-0.06l-0.12-.03a0.161,0.161,0,0,1-.04-0.07h-0.06l-0.03-.06h-0.07a0.488,0.488,0,0,1-.03-0.07l-0.13-.03v-0.03c-0.03-.01-0.06-0.02-0.1-0.03-0.01-.02-0.02-0.05-0.03-0.07h-0.06c-0.02-.03-0.05-0.06-0.07-0.09h-0.06v-0.04c-0.03-.01-0.07-0.02-0.1-0.03l-0.03-.06h-0.06a0.607,0.607,0,0,1-.07-0.1h-0.06c-0.01-.02-0.03-0.04-0.04-0.06h-0.06a0.488,0.488,0,0,0-.03-0.07l-0.1-.03a0.879,0.879,0,0,1-.06-0.1h-0.07l-0.06-.09h-0.07a0.879,0.879,0,0,0-.06-0.1h-0.07c-0.03-.04-0.06-0.09-0.09-0.13h-0.07c-0.03-.04-0.06-0.09-0.09-0.13h-0.07c-0.03-.04-0.06-0.08-0.1-0.13h-0.06l-0.13-.16h-0.06a0.865,0.865,0,0,1-.07-0.1,1.463,1.463,0,0,0-.13-0.09v-0.03h-0.06c-0.08-.09-0.15-0.18-0.23-0.26a8.97,8.97,0,0,1-.77-0.74,8.087,8.087,0,0,1-.84-0.91l-0.19-.16v-0.06c-0.07-.06-0.13-0.11-0.2-0.16v-0.07l-0.06-.03v-0.03c-0.02-.01-0.04-0.03-0.06-0.04v-0.06a0.642,0.642,0,0,1-.13-0.1v-0.06a1.47,1.47,0,0,1-.13-0.1v-0.06c-0.03-.02-0.07-0.05-0.1-0.07v-0.06c-0.03-.02-0.06-0.04-0.1-0.07v-0.06a0.55,0.55,0,0,1-.09-0.07v-0.06c-0.03-.02-0.07-0.04-0.1-0.06v-0.07l-0.06-.03v-0.07a0.879,0.879,0,0,1-.1-0.06v-0.06a0.209,0.209,0,0,0-.06-0.04,0.355,0.355,0,0,1-.04-0.09h-0.03v-0.07l-0.06-.03v-0.07a0.488,0.488,0,0,1-.07-0.03v-0.06l-0.06-.03V2974c-0.02-.01-0.05-0.02-0.07-0.03v-0.07l-0.06-.03v-0.06a0.488,0.488,0,0,0-.07-0.03v-0.07l-0.06-.03v-0.07h-0.03v-0.06c-0.02-.01-0.05-0.02-0.07-0.03-0.01-.05-0.02-0.09-0.03-0.13l-0.06-.03a1.037,1.037,0,0,0-.04-0.1h-0.03v-0.06l-0.06-.07v-0.06c-0.02-.01-0.05-0.03-0.07-0.04-0.02-.06-0.04-0.13-0.06-0.19a0.488,0.488,0,0,0-.07-0.03v-0.07h-0.03v-0.06l-0.06-.07v-0.06c-0.02-.01-0.05-0.02-0.07-0.03v-0.07l-0.06-.06v-0.07h-0.03v-0.06h-0.04v-0.06h-0.03v-0.07h-0.03v-0.06h-0.03a0.5,0.5,0,0,0-.04-0.13h-0.03v-0.07h-0.03v-0.06h-0.03v-0.07h-0.03v-0.06h-0.04v-0.07h-0.03l-0.03-.12h-0.03v-0.07h-0.04v-0.1h-0.03v-0.06h-0.03c-0.02-.06-0.04-0.13-0.06-0.19h-0.04v-0.1h-0.03c-0.01-.04-0.02-0.09-0.03-0.13h-0.03v-0.1h-0.04v-0.06h-0.03v-0.1h-0.03v-0.06h-0.03v-0.1h-0.03v-0.06h-0.04v-0.1h-0.03v-0.06h-0.03v-0.1h-0.03v-0.07h-0.04c-0.02-.09-0.04-0.19-0.06-0.29h-0.03v-0.09h-0.03v-0.07h-0.04c-0.01-.06-0.02-0.13-0.03-0.19h-0.03v-0.1h-0.03v-0.09h-0.04v-0.1h-0.03c-0.02-.11-0.04-0.22-0.06-0.32h-0.03v-0.13h-0.04v-0.1h-0.03c-0.01-.07-0.02-0.15-0.03-0.23h-0.03c-0.03-.11-0.05-0.23-0.07-0.35h-0.03v-0.13h-0.03v-0.16h-0.04v-0.13h-0.03v-0.13h-0.03c-0.01-.1-0.02-0.19-0.03-0.29h-0.03v-0.16h-0.04v-0.19h-0.03v-0.16h-0.03v-0.2c-0.07-.25-0.09-0.58-0.16-0.84v-0.29h-0.03V2965h-0.04v-0.35h-0.03v-0.49a4.654,4.654,0,0,1-.03-1,6.372,6.372,0,0,1,.03-1.32v-0.32c0.01-.17.02-0.34,0.03-0.52h0.04v-0.29h0.03v-0.29c0.07-.25.09-0.59,0.16-0.84v-0.19c0.1-.33.15-0.75,0.26-1.06v-0.13h0.03c0.01-.09.02-0.17,0.03-0.26h0.03c0.01-.09.03-0.17,0.04-0.26h0.03v-0.1h0.03c0.01-.07.02-0.15,0.03-0.22h0.04v-0.13h0.03v-0.1h0.03v-0.09h0.03v-0.1h0.03c0.04-.14.07-0.28,0.1-0.42h0.03v-0.06h0.04v-0.1h0.03v-0.1h0.03v-0.09h0.03v-0.1h0.03V2956h0.04c0.01-.06.02-0.12,0.03-0.19h0.03v-0.06h0.03v-0.1h0.04v-0.07h0.03v-0.09h0.03v-0.07h0.03v-0.09h0.03a0.929,0.929,0,0,0,.04-0.13h0.03v-0.1h0.03c0.01-.04.02-0.09,0.03-0.13h0.04v-0.09h0.03c0.02-.07.04-0.13,0.06-0.2h0.03a0.936,0.936,0,0,0,.04-0.16h0.03v-0.06h0.03c0.01-.05.02-0.09,0.03-0.13h0.04v-0.07h0.03v-0.06h0.03v-0.07h0.03v-0.06h0.03V2954h0.04v-0.06h0.03v-0.06h0.03v-0.07h0.03v-0.06h0.04v-0.07l0.06-.06v-0.07l0.06-.03a0.647,0.647,0,0,0,.04-0.13h0.03v-0.06l0.06-.07v-0.06a0.488,0.488,0,0,0,.07-0.03c0.02-.07.04-0.13,0.06-0.2,0.02-.01.05-0.02,0.07-0.03,0.01-.04.02-0.09,0.03-0.13l0.06-.03c0.01-.04.03-0.09,0.04-0.13l0.06-.03c0.01-.05.02-0.09,0.03-0.13,0.02-.01.05-0.02,0.07-0.03v-0.07l0.06-.03c0.01-.04.02-0.09,0.03-0.13a0.488,0.488,0,0,0,.07-0.03v-0.07l0.06-.03v-0.06a0.251,0.251,0,0,0,.07-0.04v-0.06h0.03c0.01-.03.02-0.06,0.03-0.1a0.488,0.488,0,0,1,.07-0.03v-0.06h0.03c0.01-.04.02-0.07,0.03-0.1a0.488,0.488,0,0,1,.07-0.03v-0.07l0.09-.06v-0.07a0.488,0.488,0,0,1,.07-0.03v-0.06l0.06-.03c0.01-.04.02-0.07,0.03-0.1a0.359,0.359,0,0,0,.1-0.07v-0.06l0.06-.03v-0.07a1.463,1.463,0,0,0,.13-0.09v-0.07a0.879,0.879,0,0,0,.1-0.06v-0.07c0.04-.03.09-0.06,0.13-0.09v-0.07c0.04-.03.08-0.06,0.13-0.1v-0.06c0.04-.03.08-0.06,0.13-0.1v-0.06c0.06-.06.13-0.11,0.19-0.16v-0.07c0.06-.05.13-0.1,0.19-0.16v-0.06l0.29-.26v-0.07c0.18-.16.35-0.32,0.52-0.48a9.454,9.454,0,0,1,1.03-.97,0.46,0.46,0,0,1,.16-0.16v-0.03h0.07a1.462,1.462,0,0,1,.16-0.19h0.06a1.47,1.47,0,0,1,.1-0.13h0.06c0.04-.05.07-0.09,0.1-0.13h0.06c0.04-.05.07-0.09,0.1-0.13h0.07c0.02-.03.04-0.07,0.06-0.1h0.06a0.642,0.642,0,0,0,.1-0.13h0.07l0.03-.06h0.06a0.574,0.574,0,0,1,.04-0.07l0.09-.03a0.55,0.55,0,0,1,.07-0.09h0.06a0.488,0.488,0,0,1,.03-0.07h0.07a0.879,0.879,0,0,0,.06-0.1h0.07l0.03-.06c0.03-.01.06-0.02,0.1-0.03v-0.04h0.06l0.03-.06h0.07l0.03-.06h0.06a0.161,0.161,0,0,1,.04-0.07h0.06l0.03-.06h0.07c0.01-.02.02-0.05,0.03-0.07,0.04-.01.08-0.02,0.13-0.03v-0.03l0.09-.03a0.574,0.574,0,0,0,.04-0.07h0.06v-0.03h0.07a0.488,0.488,0,0,0,.03-0.07c0.04-.01.08-0.02,0.13-0.03l0.03-.06,0.13-.03a0.488,0.488,0,0,1,.03-0.07c0.06-.02.13-0.04,0.19-0.06a0.435,0.435,0,0,1,.04-0.07h0.06v-0.03h0.06v-0.03h0.07l0.06-.07h0.07l0.03-.06h0.07l0.06-.07h0.06v-0.03h0.07v-0.03h0.06v-0.03h0.07v-0.04h0.06v-0.03h0.07v-0.03h0.06v-0.03h0.07v-0.03h0.06v-0.04h0.06v-0.03c0.05-.01.09-0.02,0.13-0.03v-0.03h0.07v-0.04l0.16-.03v-0.03c0.06-.02.13-0.04,0.19-0.06v-0.04h0.1v-0.03l0.13-.03v-0.03h0.09v-0.04c0.05-.01.09-0.02,0.13-0.03v-0.03h0.1v-0.03h0.06v-0.03h0.1v-0.04h0.07v-0.03h0.09v-0.03h0.07v-0.03c0.06-.01.13-0.03,0.19-0.04v-0.03h0.07v-0.03h0.09v-0.03h0.1v-0.04h0.1v-0.03h0.09v-0.03h0.07v-0.03c0.14-.03.28-0.07,0.42-0.1v-0.03h0.09v-0.03h0.1v-0.04h0.1v-0.03h0.12v-0.03h0.1v-0.03h0.13c0.3-.11.69-0.19,1-0.29l0.32-.03c0.26-.09.6-0.12,0.87-0.2h0.2c0.3-.09.72-0.07,1.03-0.16h0.35v-0.03A1.867,1.867,0,0,0,1068.85,2943.01Zm-2.81,16.19h-2.55v4.61h2.55v13.06h5.45v-13.06h3.54c0.17-1.54.33-3.08,0.49-4.61h-4.03v-2.13a2.32,2.32,0,0,1,.26-1.49l0.06-.06h0.07a0.879,0.879,0,0,0,.06-0.1H1072v-0.03c0.05-.01.09-0.02,0.13-0.03v-0.03a2.613,2.613,0,0,1,.91-0.07h2.48v-4.48H1073v-0.03h-1.83v0.03h-0.45v0.03c-0.23.02-.46,0.04-0.68,0.07-0.3.08-.6,0.17-0.9,0.25v0.04h-0.07v0.03l-0.16.03v0.03c-0.06.02-.13,0.05-0.19,0.07v0.03h-0.07v0.03a1.458,1.458,0,0,0-.19.07l-0.03.06c-0.05.01-.09,0.02-0.13,0.03v0.04l-0.1.03-0.03.06h-0.07c-0.02.03-.04,0.07-0.06,0.1h-0.06a0.642,0.642,0,0,0-.1.13h-0.07c-0.09.11-.19,0.21-0.29,0.32l-0.22.19v0.07a1.132,1.132,0,0,0-.13.1v0.06c-0.03.02-.07,0.04-0.1,0.06v0.07l-0.06.03c-0.01.03-.02,0.07-0.03,0.1h-0.04v0.06l-0.06.03c-0.01.05-.02,0.09-0.03,0.13a0.251,0.251,0,0,0-.07.04c-0.02.06-.04,0.12-0.06,0.19h-0.03v0.06h-0.04c-0.02.07-.04,0.13-0.06,0.2h-0.03v0.09h-0.04v0.07h-0.03v0.1h-0.03v0.06h-0.03v0.1h-0.03v0.09h-0.04v0.1h-0.03v0.1h-0.03v0.13h-0.03v0.12h-0.04v0.13h-0.03v0.17h-0.03v0.16h-0.03c-0.02.22-.05,0.45-0.07,0.67v0.33a5.235,5.235,0,0,0-.03,1.06v2.1Z" transform="translate(-1050.03 -2943)"/>
</svg>
