<?xml version="1.0" encoding="utf-8"?>
<!-- Generator: Adobe Illustrator 22.1.0, SVG Export Plug-In . SVG Version: 6.00 Build 0)  -->
<svg version="1.1" id="Capa_1" xmlns="http://www.w3.org/2000/svg" xmlns:xlink="http://www.w3.org/1999/xlink" x="0px" y="0px"
	 viewBox="0 0 480 480" style="enable-background:new 0 0 480 480;" xml:space="preserve">
<style type="text/css">
	.st0{fill:url(#SVGID_1_);}
	.st1{fill:url(#SVGID_2_);}
	.st2{fill:url(#SVGID_3_);}
	.st3{fill:url(#SVGID_4_);}
	.st4{fill:url(#SVGID_5_);}
	.st5{fill:url(#SVGID_6_);}
	.st6{fill:url(#SVGID_7_);}
	.st7{fill:url(#SVGID_8_);}
	.st8{fill:url(#SVGID_9_);}
	.st9{fill:url(#SVGID_10_);}
	.st10{fill:url(#SVGID_11_);}
	.st11{fill:url(#SVGID_12_);}
	.st12{fill:url(#SVGID_13_);}
	.st13{fill:url(#SVGID_14_);}
	.st14{fill:url(#SVGID_15_);}
	.st15{fill:url(#SVGID_16_);}
</style>
<g>
	<g>
		<linearGradient id="SVGID_1_" gradientUnits="userSpaceOnUse" x1="52" y1="177.004" x2="436" y2="177.004">
			<stop  offset="0" style="stop-color:#0083B0"/>
			<stop  offset="1" style="stop-color:#00B4DB"/>
		</linearGradient>
		<path class="st0" d="M396,1H92C69.9,1,52,18.9,52,41v216c0,22.1,17.9,40,40,40h109.4L190,337h-26v16h160v-16h-26l-11.4-40H396
			c22.1,0,40-17.9,40-40V41C436,18.9,418.1,1,396,1z M206.6,337l11.4-40H270l11.4,40H206.6z M420,257c0,13.3-10.7,24-24,24H92
			c-13.3,0-24-10.7-24-24v-16h352V257z M420,225H68V41c0-13.3,10.7-24,24-24h304c13.3,0,24,10.7,24,24V225z"/>
	</g>
</g>
<g>
	<g>
		<linearGradient id="SVGID_2_" gradientUnits="userSpaceOnUse" x1="76" y1="425.004" x2="316" y2="425.004">
			<stop  offset="0" style="stop-color:#0083B0"/>
			<stop  offset="1" style="stop-color:#00B4DB"/>
		</linearGradient>
		<path class="st1" d="M308,369H84c-4.4,0-8,3.6-8,8v96c0,4.4,3.6,8,8,8h224c4.4,0,8-3.6,8-8v-96C316,372.6,312.4,369,308,369z
			 M300,465H92v-80h208V465z"/>
	</g>
</g>
<g>
	<g>
		<linearGradient id="SVGID_3_" gradientUnits="userSpaceOnUse" x1="108" y1="441.004" x2="124" y2="441.004">
			<stop  offset="0" style="stop-color:#0083B0"/>
			<stop  offset="1" style="stop-color:#00B4DB"/>
		</linearGradient>
		<rect x="108" y="433" class="st2" width="16" height="16"/>
	</g>
</g>
<g>
	<g>
		<linearGradient id="SVGID_4_" gradientUnits="userSpaceOnUse" x1="108" y1="409.004" x2="124" y2="409.004">
			<stop  offset="0" style="stop-color:#0083B0"/>
			<stop  offset="1" style="stop-color:#00B4DB"/>
		</linearGradient>
		<rect x="108" y="401" class="st3" width="16" height="16"/>
	</g>
</g>
<g>
	<g>
		<linearGradient id="SVGID_5_" gradientUnits="userSpaceOnUse" x1="140" y1="409.004" x2="156" y2="409.004">
			<stop  offset="0" style="stop-color:#0083B0"/>
			<stop  offset="1" style="stop-color:#00B4DB"/>
		</linearGradient>
		<rect x="140" y="401" class="st4" width="16" height="16"/>
	</g>
</g>
<g>
	<g>
		<linearGradient id="SVGID_6_" gradientUnits="userSpaceOnUse" x1="172" y1="409.004" x2="188" y2="409.004">
			<stop  offset="0" style="stop-color:#0083B0"/>
			<stop  offset="1" style="stop-color:#00B4DB"/>
		</linearGradient>
		<rect x="172" y="401" class="st5" width="16" height="16"/>
	</g>
</g>
<g>
	<g>
		<linearGradient id="SVGID_7_" gradientUnits="userSpaceOnUse" x1="236" y1="409.004" x2="252" y2="409.004">
			<stop  offset="0" style="stop-color:#0083B0"/>
			<stop  offset="1" style="stop-color:#00B4DB"/>
		</linearGradient>
		<rect x="236" y="401" class="st6" width="16" height="16"/>
	</g>
</g>
<g>
	<g>
		<linearGradient id="SVGID_8_" gradientUnits="userSpaceOnUse" x1="204" y1="409.004" x2="220" y2="409.004">
			<stop  offset="0" style="stop-color:#0083B0"/>
			<stop  offset="1" style="stop-color:#00B4DB"/>
		</linearGradient>
		<rect x="204" y="401" class="st7" width="16" height="16"/>
	</g>
</g>
<g>
	<g>
		<linearGradient id="SVGID_9_" gradientUnits="userSpaceOnUse" x1="268" y1="441.004" x2="284" y2="441.004">
			<stop  offset="0" style="stop-color:#0083B0"/>
			<stop  offset="1" style="stop-color:#00B4DB"/>
		</linearGradient>
		<rect x="268" y="433" class="st8" width="16" height="16"/>
	</g>
</g>
<g>
	<g>
		<linearGradient id="SVGID_10_" gradientUnits="userSpaceOnUse" x1="268" y1="409.004" x2="284" y2="409.004">
			<stop  offset="0" style="stop-color:#0083B0"/>
			<stop  offset="1" style="stop-color:#00B4DB"/>
		</linearGradient>
		<rect x="268" y="401" class="st9" width="16" height="16"/>
	</g>
</g>
<g>
	<g>
		<linearGradient id="SVGID_11_" gradientUnits="userSpaceOnUse" x1="140" y1="441.004" x2="252" y2="441.004">
			<stop  offset="0" style="stop-color:#0083B0"/>
			<stop  offset="1" style="stop-color:#00B4DB"/>
		</linearGradient>
		<rect x="140" y="433" class="st10" width="112" height="16"/>
	</g>
</g>
<g>
	<g>
		<linearGradient id="SVGID_12_" gradientUnits="userSpaceOnUse" x1="332" y1="425.004" x2="412" y2="425.004">
			<stop  offset="0" style="stop-color:#0083B0"/>
			<stop  offset="1" style="stop-color:#00B4DB"/>
		</linearGradient>
		<path class="st11" d="M372,369c-22.1,0-40,17.9-40,40v32c0,22.1,17.9,40,40,40s40-17.9,40-40v-32C412,386.9,394.1,369,372,369z
			 M396,441c0,13.3-10.7,24-24,24s-24-10.7-24-24v-32c0-13.3,10.7-24,24-24s24,10.7,24,24V441z"/>
	</g>
</g>
<g>
	<g>
		<linearGradient id="SVGID_13_" gradientUnits="userSpaceOnUse" x1="364" y1="409.004" x2="380" y2="409.004">
			<stop  offset="0" style="stop-color:#0083B0"/>
			<stop  offset="1" style="stop-color:#00B4DB"/>
		</linearGradient>
		<rect x="364" y="401" class="st12" width="16" height="16"/>
	</g>
</g>
<g>
	<g>
		<linearGradient id="SVGID_14_" gradientUnits="userSpaceOnUse" x1="220.2432" y1="129.1401" x2="267.6487" y2="129.1401">
			<stop  offset="0" style="stop-color:#0083B0"/>
			<stop  offset="1" style="stop-color:#00B4DB"/>
		</linearGradient>
		<polygon class="st13" points="220.2,182.9 252.3,71 267.6,75.4 235.6,187.3 		"/>
	</g>
</g>
<g>
	<g>
		<linearGradient id="SVGID_15_" gradientUnits="userSpaceOnUse" x1="140.0036" y1="129.004" x2="201.12" y2="129.004">
			<stop  offset="0" style="stop-color:#0083B0"/>
			<stop  offset="1" style="stop-color:#00B4DB"/>
		</linearGradient>
		<path class="st14" d="M201.1,95.1l-10.2-12.3l-48,40c-3.4,2.8-3.9,7.9-1,11.3c0.3,0.4,0.6,0.7,1,1l48,40l10.2-12.3L160.5,129
			L201.1,95.1z"/>
	</g>
</g>
<g>
	<g>
		<linearGradient id="SVGID_16_" gradientUnits="userSpaceOnUse" x1="286.88" y1="129.004" x2="347.9964" y2="129.004">
			<stop  offset="0" style="stop-color:#0083B0"/>
			<stop  offset="1" style="stop-color:#00B4DB"/>
		</linearGradient>
		<path class="st15" d="M346.1,123.9c-0.3-0.4-0.6-0.7-1-1l-48-40l-10.2,12.3l40.6,33.9l-40.6,33.9l10.2,12.3l48-40
			C348.5,132.3,349,127.3,346.1,123.9z"/>
	</g>
</g>
</svg>
