<svg xmlns="http://www.w3.org/2000/svg" width="39.969" height="39.97" viewBox="0 0 39.969 39.97">
  <metadata><?xpacket begin="﻿" id="W5M0MpCehiHzreSzNTczkc9d"?>
<x:xmpmeta xmlns:x="adobe:ns:meta/" x:xmptk="Adobe XMP Core 5.6-c140 79.160451, 2017/05/06-01:08:21        ">
   <rdf:RDF xmlns:rdf="http://www.w3.org/1999/02/22-rdf-syntax-ns#">
      <rdf:Description rdf:about=""/>
   </rdf:RDF>
</x:xmpmeta>
                                                                                                    
                                                                                                    
                                                                                                    
                                                                                                    
                                                                                                    
                                                                                                    
                                                                                                    
                                                                                                    
                                                                                                    
                                                                                                    
                                                                                                    
                                                                                                    
                                                                                                    
                                                                                                    
                                                                                                    
                                                                                                    
                                                                                                    
                                                                                                    
                                                                                                    
                                                                                                    
                           
<?xpacket end="w"?></metadata>
<defs>
    <style>
      .cls-1 {
        fill: #fff;
        fill-rule: evenodd;
      }
    </style>
  </defs>
  <path id="gp" class="cls-1" d="M1009.03,2943h1.26a2.693,2.693,0,0,1,.71.04l0.9,0.03v0.03h0.29v0.03h0.29v0.03h0.26v0.04h0.22v0.03h0.2v0.03h0.19v0.03h0.19v0.04l0.36,0.03v0.03h0.16v0.03l0.29,0.03v0.04h0.13v0.03c0.18,0.03.36,0.06,0.55,0.1v0.03h0.09v0.03l0.36,0.06v0.04l0.22,0.03v0.03h0.13v0.03h0.1v0.04h0.1v0.03h0.09v0.03h0.1V2944h0.1v0.03h0.09v0.04h0.1v0.03l0.29,0.06v0.04h0.06v0.03l0.2,0.03v0.03h0.06v0.03a1.416,1.416,0,0,0,.2.04v0.03h0.06v0.03h0.1v0.03h0.06v0.04h0.1v0.03c0.04,0.01.08,0.02,0.13,0.03v0.03h0.09v0.04c0.05,0.01.09,0.02,0.13,0.03v0.03h0.1v0.03h0.06v0.03c0.05,0.01.09,0.03,0.13,0.04v0.03h0.1v0.03h0.06v0.03a0.5,0.5,0,0,1,.13.04v0.03c0.05,0.01.09,0.02,0.13,0.03V2945h0.07v0.03h0.06v0.04h0.06v0.03h0.07v0.03c0.17,0.08.34,0.15,0.51,0.23a0.209,0.209,0,0,1,.04.06h0.06v0.03h0.07v0.04h0.06l0.07,0.06h0.06l0.03,0.06h0.07v0.04h0.06l0.03,0.06a1.587,1.587,0,0,1,.2.07l0.03,0.06h0.06v0.03h0.07v0.03a0.355,0.355,0,0,0,.09.04c0.01,0.02.03,0.04,0.04,0.06,0.04,0.01.08,0.02,0.13,0.03a0.488,0.488,0,0,0,.03.07h0.06l0.03,0.06h0.07c0.01,0.02.02,0.05,0.03,0.07l0.13,0.03v0.03c0.03,0.01.06,0.02,0.1,0.03a0.488,0.488,0,0,0,.03.07h0.06a0.209,0.209,0,0,0,.04.06h0.06c0.02,0.03.04,0.07,0.06,0.1h0.07v0.03c0.03,0.01.06,0.02,0.1,0.03a0.488,0.488,0,0,0,.03.07h0.06l0.03,0.06a0.3,0.3,0,0,1,.1.04,0.55,0.55,0,0,0,.07.09h0.06a0.488,0.488,0,0,1,.03.07h0.07a1.463,1.463,0,0,1,.09.13h0.07l0.06,0.09h0.07c0.02,0.03.04,0.07,0.06,0.1h0.07a1.463,1.463,0,0,1,.09.13h0.07a1.826,1.826,0,0,0,.13.16h0.06l0.03,0.06a0.607,0.607,0,0,0,.1.07v0.03h0.06a1.826,1.826,0,0,1,.13.16h0.07c0.06,0.08.13,0.15,0.19,0.23,0.03,0.01.06,0.02,0.1,0.03,0.12,0.13.23,0.26,0.35,0.39h0.03c0.01,0.02.03,0.04,0.04,0.06h0.06l0.26,0.29c0.09,0.09.19,0.17,0.29,0.26v0.06c0.11,0.1.21,0.2,0.32,0.29a0.359,0.359,0,0,0,.07.1h0.03v0.06a2.848,2.848,0,0,0,.26.23v0.06c0.06,0.06.12,0.11,0.19,0.17v0.06l0.06,0.03v0.03c0.04,0.03.07,0.05,0.1,0.07v0.06a1.132,1.132,0,0,0,.13.1v0.07a1.463,1.463,0,0,0,.13.09v0.07l0.06,0.03c0.01,0.03.02,0.06,0.03,0.1a1.463,1.463,0,0,1,.13.09v0.07a0.879,0.879,0,0,1,.1.06v0.07a0.879,0.879,0,0,0,.1.06v0.06a0.209,0.209,0,0,0,.06.04v0.06a0.607,0.607,0,0,1,.1.07v0.06h0.03c0.01,0.03.02,0.06,0.03,0.1,0.02,0.01.05,0.02,0.07,0.03v0.06a0.55,0.55,0,0,0,.09.07v0.06c0.02,0.01.05,0.02,0.07,0.03v0.07l0.06,0.03v0.07c0.02,0.01.05,0.02,0.07,0.03v0.06a0.209,0.209,0,0,1,.06.04l0.03,0.12c0.02,0.01.05,0.03,0.07,0.04v0.06l0.06,0.03v0.07c0.02,0.01.05,0.02,0.07,0.03,0.01,0.04.02,0.09,0.03,0.13l0.06,0.03a0.647,0.647,0,0,0,.04.13l0.06,0.03c0.01,0.05.02,0.09,0.03,0.13,0.02,0.01.05,0.02,0.07,0.03V2953l0.06,0.06v0.07a0.488,0.488,0,0,0,.07.03v0.06h0.03v0.07l0.06,0.06v0.07c0.02,0.01.05,0.02,0.07,0.03,0.07,0.17.15,0.34,0.22,0.52h0.03a0.564,0.564,0,0,1,.04.12h0.03c0.01,0.05.02,0.09,0.03,0.13h0.03v0.07h0.04v0.06h0.03v0.07h0.03v0.06h0.03c0.01,0.04.02,0.09,0.03,0.13h0.04v0.06h0.03v0.1h0.03v0.07h0.03c0.01,0.04.03,0.08,0.04,0.12h0.03v0.1h0.03c0.01,0.04.02,0.09,0.03,0.13h0.03v0.1h0.04v0.06h0.03c0.01,0.06.02,0.11,0.03,0.16h0.03v0.1h0.04v0.06h0.03c0.22,0.68.45,1.36,0.68,2.03,0.01,0.09.02,0.18,0.03,0.26h0.03v0.13h0.03v0.13h0.03v0.13h0.04v0.13h0.03v0.16c0.07,0.23.12,0.54,0.19,0.77l0.03,0.39c0.06,0.19.08,0.48,0.13,0.68v0.26h0.04v0.32h0.03v0.35h0.03v0.49a4.364,4.364,0,0,1,.03.9,6.084,6.084,0,0,1-.03,1.29v0.35c-0.01.16-.02,0.33-0.03,0.49h-0.03v0.32h-0.04v0.26h-0.03v0.26c-0.05.18-.08,0.43-0.13,0.61v0.19c-0.13.57-.26,1.14-0.38,1.71h-0.04c-0.01.08-.02,0.15-0.03,0.23h-0.03c-0.01.07-.02,0.15-0.03,0.22h-0.04c-0.02.11-.04,0.22-0.06,0.32h-0.03v0.1h-0.04v0.1h-0.03v0.09h-0.03c-0.02.1-.04,0.2-0.06,0.29h-0.04v0.07h-0.03c-0.02.1-.04,0.19-0.06,0.29h-0.04v0.06h-0.03c-0.01.07-.02,0.13-0.03,0.2h-0.03c-0.01.05-.02,0.1-0.03,0.16h-0.04v0.06h-0.03v0.1h-0.03c-0.01.04-.02,0.09-0.03,0.13h-0.04v0.09h-0.03c-0.01.05-.02,0.09-0.03,0.13h-0.03v0.1h-0.03c-0.01.04-.03,0.09-0.04,0.13h-0.03v0.1h-0.03c-0.01.04-.02,0.08-0.03,0.13h-0.04v0.06h-0.03v0.06h-0.03c-0.02.07-.04,0.13-0.06,0.2h-0.04v0.09h-0.03c-0.02.07-.04,0.13-0.06,0.2h-0.04c-0.01.04-.02,0.08-0.03,0.13l-0.06.03v0.06l-0.07.07v0.06h-0.03v0.07h-0.03v0.06h-0.03a0.647,0.647,0,0,1-.04.13l-0.06.03v0.07h-0.03v0.06l-0.07.07v0.06l-0.06.03v0.07h-0.03v0.06c-0.02.01-.05,0.02-0.07,0.03-0.02.07-.04,0.13-0.06,0.2h-0.03a0.355,0.355,0,0,0-.04.09c-0.02.01-.04,0.03-0.06,0.04v0.06h-0.03v0.07c-0.02.01-.05,0.02-0.07,0.03-0.01.04-.02,0.08-0.03,0.13l-0.06.03v0.06a0.161,0.161,0,0,0-.07.04v0.06l-0.06.03v0.07c-0.02.01-.05,0.02-0.07,0.03v0.06h-0.03c-0.01.04-.02,0.07-0.03,0.1-0.02.01-.05,0.02-0.07,0.03v0.07h-0.03l-0.03.09a0.574,0.574,0,0,0-.07.04v0.06l-0.09.06v0.07c-0.02.01-.05,0.02-0.07,0.03v0.07l-0.09.06v0.06c-0.04.03-.07,0.05-0.1,0.07v0.06a0.359,0.359,0,0,1-.1.07v0.06c-0.03.02-.06,0.05-0.09,0.07v0.06a1.47,1.47,0,0,0-.13.1v0.06c-0.03.02-.07,0.05-0.1,0.07v0.06l-0.16.13v0.07c-0.05.04-.11,0.08-0.16,0.12v0.07a1.01,1.01,0,0,0-.16.13v0.06l-0.26.23v0.06l-0.35.32v0.07c-0.12.11-.24,0.21-0.36,0.32a7.447,7.447,0,0,1-.87.81l-0.23.26h-0.06c-0.05.06-.11,0.12-0.16,0.19h-0.07c-0.03.04-.06,0.09-0.09,0.13h-0.07a1.826,1.826,0,0,1-.13.16h-0.06l-0.03.06c-0.03.01-.07,0.03-0.1,0.04a1.059,1.059,0,0,1-.1.12h-0.06a0.879,0.879,0,0,1-.06.1h-0.07c-0.02.03-.04,0.07-0.06,0.1h-0.07a0.879,0.879,0,0,0-.06.1h-0.07l-0.06.09h-0.07a0.488,0.488,0,0,0-.03.07h-0.06c-0.02.03-.05,0.06-0.07,0.09h-0.06c-0.01.02-.02,0.05-0.03,0.07-0.04.01-.07,0.02-0.1,0.03v0.03h-0.06a0.251,0.251,0,0,0-.04.07h-0.06l-0.03.06h-0.07a0.488,0.488,0,0,0-.03.07h-0.06a0.209,0.209,0,0,0-.04.06h-0.06l-0.03.06h-0.07a0.488,0.488,0,0,1-.03.07h-0.06v0.03h-0.07a0.488,0.488,0,0,0-.03.07l-0.13.03-0.03.06-0.1.03v0.04c-0.06.02-.13,0.04-0.19,0.06a0.488,0.488,0,0,0-.03.07c-0.05.01-.09,0.02-0.13,0.03-0.01.02-.03,0.04-0.04,0.06h-0.06v0.03h-0.06l-0.07.07h-0.06c-0.01.02-.03,0.04-0.04,0.06h-0.06l-0.07.07h-0.06v0.03h-0.06v0.03h-0.07v0.03a0.5,0.5,0,0,1-.13.04l-0.03.06-0.13.03v0.04c-0.06.02-.13,0.04-0.19,0.06v0.03h-0.1v0.04c-0.04.01-.08,0.02-0.13,0.03v0.03h-0.06v0.03h-0.07v0.03a1.458,1.458,0,0,1-.19.07v0.03h-0.1v0.03a0.929,0.929,0,0,0-.13.04v0.03h-0.09v0.03l-0.13.03v0.03h-0.1v0.04c-0.04.01-.08,0.02-0.13,0.03v0.03h-0.09v0.03h-0.07v0.04l-0.16.03v0.03l-0.19.03v0.03h-0.07v0.04c-0.09.02-.19,0.04-0.29,0.06v0.03h-0.06v0.04c-0.07.01-.13,0.02-0.19,0.03v0.03h-0.1v0.03h-0.1v0.03h-0.09v0.04h-0.1v0.03h-0.13v0.03h-0.1v0.03h-0.09v0.04l-0.23.03v0.03l-0.22.03v0.03c-0.13.03-.26,0.05-0.39,0.07v0.03h-0.13v0.03h-0.13v0.04h-0.13v0.03h-0.13v0.03h-0.16v0.03h-0.16v0.03h-0.16v0.04h-0.16v0.03h-0.16c-0.24.07-.56,0.09-0.81,0.16h-0.26v0.03h-0.25v0.04h-0.33v0.03h-0.35v0.03h-0.48v0.03h-0.91a6.084,6.084,0,0,1-1.29-.03h-0.35l-0.48-.03v-0.03c-0.2-.02-0.39-0.03-0.58-0.04-0.57-.09-1.14-0.19-1.71-0.29v-0.03l-0.29-.03v-0.03c-0.09-.01-0.17-0.03-0.26-0.04v-0.03h-0.13v-0.03h-0.13v-0.03h-0.13v-0.04h-0.13v-0.03h-0.09v-0.03h-0.13v-0.03h-0.1v-0.03h-0.13v-0.04h-0.09v-0.03h-0.1v-0.03h-0.1v-0.03a1.7,1.7,0,0,1-.22-0.04v-0.03h-0.1v-0.03h-0.1v-0.03h-0.06v-0.03a1.625,1.625,0,0,0-.19-0.04v-0.03l-0.2-.03v-0.03h-0.06v-0.04h-0.1v-0.03h-0.1v-0.03h-0.06v-0.03c-0.19-.07-0.39-0.13-0.58-0.2v-0.03l-0.13-.03v-0.03h-0.1v-0.03a0.564,0.564,0,0,0-.12-0.04v-0.03l-0.17-.03v-0.03a1.066,1.066,0,0,0-.19-0.07v-0.03h-0.06v-0.03h-0.07v-0.03h-0.06v-0.04h-0.07v-0.03c-0.04-.01-0.08-0.02-0.13-0.03v-0.03c-0.04-.01-0.08-0.03-0.12-0.04v-0.03c-0.05-.01-0.09-0.02-0.13-0.03v-0.03h-0.07v-0.04h-0.06v-0.03h-0.07v-0.03h-0.06v-0.03l-0.13-.03a0.488,0.488,0,0,0-.03-0.07h-0.07v-0.03h-0.06l-0.07-.07h-0.06l-0.03-.06c-0.07-.02-0.13-0.04-0.2-0.06a0.6,0.6,0,0,0-.032-0.07l-0.129-.03a0.388,0.388,0,0,1-.032-0.07l-0.129-.03-0.033-.06-0.129-.03a0.388,0.388,0,0,0-.032-0.07h-0.064l-0.033-.06h-0.064c-0.011-.02-0.021-0.05-0.032-0.07l-0.129-.03v-0.03l-0.1-.03a0.472,0.472,0,0,0-.032-0.07h-0.064v-0.03l-0.1-.03c-0.011-.02-0.022-0.05-0.032-0.07h-0.065l-0.064-.09H998.59v-0.04l-0.1-.03c-0.01-.02-0.021-0.04-0.032-0.06H998.4a0.869,0.869,0,0,0-.065-0.1h-0.064c-0.011-.02-0.022-0.04-0.032-0.06h-0.065a0.87,0.87,0,0,0-.064-0.1h-0.065c-0.021-.03-0.043-0.07-0.064-0.1h-0.065a1.465,1.465,0,0,1-.1-0.13l-0.1-.03c-0.011-.02-0.022-0.04-0.032-0.06h-0.065a1.465,1.465,0,0,0-.1-0.13h-0.065a1.293,1.293,0,0,0-.1-0.13H997.3c-0.021-.03-0.043-0.07-0.064-0.1H997.2c-0.01-.02-0.021-0.04-0.032-0.06h-0.064c-0.054-.07-0.108-0.13-0.161-0.2h-0.065c-0.043-.05-0.086-0.1-0.129-0.16-0.086-.06-0.172-0.13-0.258-0.19-0.1-.11-0.193-0.22-0.29-0.32h-0.064c-0.086-.1-0.172-0.2-0.258-0.29s-0.194-.18-0.29-0.26v-0.07c-0.14-.13-0.279-0.25-0.419-0.38-0.011-.04-0.022-0.07-0.032-0.1-0.086-.08-0.172-0.15-0.258-0.23v-0.06c-0.054-.04-0.108-0.09-0.161-0.13v-0.06a1.844,1.844,0,0,0-.162-0.13v-0.07a2,2,0,0,1-.161-0.13v-0.06a1.124,1.124,0,0,1-.129-0.1v-0.06a0.583,0.583,0,0,1-.1-0.07v-0.06l-0.1-.06v-0.07a1.124,1.124,0,0,1-.129-0.1v-0.06l-0.064-.03v-0.07l-0.1-.06v-0.07l-0.1-.06v-0.07l-0.064-.03v-0.06H993.6c-0.011-.03-0.022-0.07-0.033-0.1l-0.064-.03v-0.07l-0.1-.06v-0.06a0.225,0.225,0,0,0-.064-0.04c-0.011-.03-0.022-0.06-0.032-0.09h-0.033c-0.01-.05-0.021-0.09-0.032-0.13l-0.064-.03v-0.07l-0.065-.03v-0.07l-0.064-.03c-0.011-.04-0.022-0.08-0.033-0.13h-0.032c-0.01-.03-0.021-0.06-0.032-0.09-0.021-.01-0.043-0.03-0.064-0.04v-0.06h-0.033v-0.06a0.225,0.225,0,0,0-.064-0.04c-0.022-.06-0.043-0.13-0.065-0.19l-0.064-.03v-0.07h-0.032v-0.06l-0.065-.03v-0.07h-0.032v-0.06H992.5v-0.07l-0.065-.06v-0.07l-0.064-.03v-0.06l-0.065-.07v-0.06h-0.032v-0.07h-0.032v-0.06h-0.032v-0.07h-0.032v-0.06h-0.033c-0.01-.04-0.021-0.09-0.032-0.13H992.08v-0.06h-0.032v-0.07h-0.033v-0.06h-0.032v-0.07h-0.032v-0.06h-0.032c-0.011-.04-0.022-0.09-0.033-0.13h-0.032v-0.06h-0.032v-0.1H991.79v-0.07h-0.033c-0.01-.04-0.021-0.08-0.032-0.13h-0.032v-0.09h-0.032c-0.011-.04-0.022-0.09-0.032-0.13H991.6v-0.1h-0.032c-0.011-.04-0.021-0.08-0.032-0.13H991.5v-0.09h-0.033v-0.07h-0.032c-0.011-.05-0.021-0.11-0.032-0.16h-0.032c-0.011-.06-0.022-0.13-0.032-0.19h-0.033v-0.07h-0.032c-0.011-.06-0.021-0.13-0.032-0.19H991.21v-0.06h-0.033c-0.021-.1-0.043-0.2-0.064-0.29h-0.032v-0.1h-0.033v-0.1h-0.032v-0.1h-0.032v-0.09h-0.032v-0.1H990.92v-0.1h-0.033v-0.09h-0.032v-0.13h-0.032v-0.1h-0.032v-0.13h-0.033v-0.09h-0.032l-0.032-.23h-0.032c-0.011-.08-0.022-0.17-0.033-0.26H990.6c-0.011-.08-0.021-0.17-0.032-0.25h-0.032v-0.17H990.5c-0.011-.09-0.022-0.19-0.033-0.29h-0.032v-0.13H990.4v-0.16h-0.032c-0.011-.11-0.022-0.23-0.033-0.35h-0.032c-0.011-.13-0.021-0.26-0.032-0.39h-0.032v-0.19h-0.032v-0.23h-0.033v-0.25h-0.032v-0.3h-0.032v-0.29h-0.032v-0.38h-0.033v-0.52a3.628,3.628,0,0,1-.032-0.8,5.114,5.114,0,0,1,.032-1.16v-0.33a2.581,2.581,0,0,1,.065-0.58v-0.32c0.1-.36.09-0.81,0.193-1.16v-0.19c0.1-.33.155-0.75,0.258-1.07,0.021-.14.043-0.28,0.064-0.42h0.033c0.021-.12.043-0.23,0.064-0.35h0.032c0.011-.08.022-0.15,0.033-0.23h0.032v-0.09h0.032v-0.1h0.032v-0.13h0.033v-0.1h0.032v-0.09h0.032v-0.1h0.032v-0.1h0.032v-0.09h0.033v-0.1h0.032c0.021-.1.043-0.19,0.064-0.29h0.033v-0.06h0.032c0.011-.07.021-0.13,0.032-0.2h0.032v-0.06h0.033v-0.1h0.032v-0.06H991.4c0.011-.07.021-0.13,0.032-0.2h0.032c0.011-.04.022-0.08,0.033-0.13h0.032v-0.09h0.032v-0.07H991.6v-0.09h0.033c0.01-.05.021-0.09,0.032-0.13h0.032v-0.1h0.032c0.022-.06.043-0.13,0.065-0.19h0.032c0.011-.06.022-0.11,0.032-0.16h0.032v-0.07h0.033c0.01-.04.021-0.09,0.032-0.13h0.032v-0.06h0.032v-0.07h0.033v-0.06h0.032v-0.07h0.032v-0.06h0.032v-0.06h0.033v-0.07h0.032v-0.06h0.032v-0.07h0.032v-0.06l0.065-.07v-0.06l0.064-.03v-0.07h0.032v-0.06h0.033v-0.07l0.064-.06v-0.07l0.064-.03c0.022-.06.043-0.13,0.065-0.19l0.064-.03c0.011-.05.022-0.09,0.033-0.13a0.225,0.225,0,0,0,.064-0.04c0.011-.04.022-0.08,0.032-0.12a0.229,0.229,0,0,1,.065-0.04c0.011-.04.021-0.08,0.032-0.13l0.064-.03v-0.06h0.033v-0.07l0.064-.03v-0.06c0.022-.01.043-0.03,0.065-0.04v-0.06l0.064-.03v-0.07h0.032l0.033-.09c0.021-.01.043-0.03,0.064-0.04v-0.06l0.064-.03v-0.07l0.065-.03v-0.06h0.032c0.011-.04.022-0.07,0.032-0.1l0.065-.03v-0.07l0.1-.06v-0.07l0.065-.03v-0.06a0.212,0.212,0,0,0,.064-0.04l0.033-.09c0.032-.02.064-0.05,0.1-0.07V2951a0.55,0.55,0,0,0,.1-0.07v-0.06l0.1-.06v-0.07a1.124,1.124,0,0,0,.129-0.1v-0.06a1.124,1.124,0,0,0,.129-0.1v-0.06c0.043-.03.086-0.07,0.128-0.1v-0.06a1.844,1.844,0,0,1,.162-0.13v-0.07c0.075-.06.15-0.13,0.225-0.19v-0.06c0.086-.08.172-0.15,0.258-0.23v-0.06a0.589,0.589,0,0,1,.1-0.07c0.064-.07.129-0.15,0.193-0.22,0.1-.09.194-0.18,0.29-0.26v-0.07c0.075-.05.151-0.1,0.226-0.16,0.172-.18.344-0.36,0.515-0.55h0.065c0.075-.08.15-0.17,0.226-0.25h0.064v-0.04l0.129-.09a0.87,0.87,0,0,1,.064-0.1h0.065c0.043-.05.086-0.11,0.129-0.16h0.064c0.032-.04.065-0.09,0.1-0.13h0.064c0.033-.04.065-0.09,0.1-0.13h0.065a1.465,1.465,0,0,0,.1-0.13h0.065l0.064-.09h0.065a0.87,0.87,0,0,1,.064-0.1h0.065c0.021-.03.043-0.07,0.064-0.1l0.1-.03c0.01-.02.021-0.04,0.032-0.06h0.064a0.465,0.465,0,0,1,.033-0.07h0.064a0.753,0.753,0,0,0,.064-0.1h0.065c0.011-.02.022-0.04,0.032-0.06l0.1-.03v-0.04h0.064l0.033-.06h0.064c0.011-.02.022-0.04,0.032-0.06h0.065a0.388,0.388,0,0,1,.032-0.07h0.064l0.033-.06h0.064c0.011-.02.022-0.05,0.032-0.07h0.065l0.032-.06h0.064a0.465,0.465,0,0,0,.033-0.07h0.064V2946h0.065c0.01-.02.021-0.04,0.032-0.06a0.638,0.638,0,0,0,.129-0.04c0.01-.02.021-0.04,0.032-0.06l0.129-.03a0.472,0.472,0,0,0,.032-0.07l0.129-.03c0.011-.02.022-0.04,0.034-0.06,0.06-.02.13-0.05,0.19-0.07l0.03-.06h0.07v-0.03h0.06v-0.04h0.07l0.06-.06h0.07a0.488,0.488,0,0,0,.03-0.07c0.17-.07.34-0.15,0.51-0.22v-0.03h0.07v-0.04h0.06V2945h0.07v-0.03h0.06v-0.03c0.07-.02.13-0.05,0.2-0.07v-0.03c0.05-.01.1-0.02,0.16-0.03v-0.03a1.458,1.458,0,0,1,.19-0.07v-0.03h0.1v-0.03c0.04-.01.08-0.02,0.13-0.03v-0.04h0.09v-0.03h0.07v-0.03h0.09v-0.03c0.05-.01.09-0.03,0.13-0.04v-0.03l0.2-.03v-0.03h0.06v-0.04c0.61-.2,1.22-0.4,1.84-0.61l0.25-.03v-0.03h0.1v-0.03h0.13v-0.04h0.13v-0.03l0.42-.06v-0.04l0.32-.03c0.26-.08.6-0.11,0.87-0.19h0.23v-0.03h0.22v-0.04h0.23v-0.03h0.29v-0.03h0.32v-0.03h0.35v-0.03A1.869,1.869,0,0,0,1009.03,2943Zm4.06,19.73c-0.99-.04-2.11-0.03-3.16-0.03h-4.73v2.81a2.028,2.028,0,0,0,.51.03h1a3.213,3.213,0,0,0,.84.03h2.38v0.03h-0.03c-0.01.08-.02,0.15-0.03,0.23h-0.03v0.06h-0.03v0.1h-0.04v0.1h-0.03v0.06h-0.03v0.1h-0.03c-0.02.06-.05,0.13-0.07,0.19h-0.03v0.07h-0.03v0.06h-0.03c-0.03.07-.05,0.13-0.07,0.19a0.209,0.209,0,0,1-.06.04,0.929,0.929,0,0,1-.04.13l-0.06.03c-0.01.04-.02,0.08-0.03,0.13a0.488,0.488,0,0,1-.07.03v0.06a0.55,0.55,0,0,1-.09.07v0.06c-0.02.01-.05,0.02-0.07,0.03-0.01.04-.02,0.07-0.03,0.1-0.06.06-.13,0.11-0.19,0.16a4.361,4.361,0,0,1-2.26,1.36l-0.32.03a4.4,4.4,0,0,1-2.23-.1h-0.12v-0.03h-0.1v-0.03h-0.1v-0.03h-0.09v-0.04h-0.1v-0.03h-0.07v-0.03h-0.09v-0.03h-0.07v-0.04h-0.09v-0.03c-0.07-.02-0.13-0.04-0.2-0.06v-0.03h-0.06v-0.04l-0.13-.03-0.03-.06c-0.07-.02-0.13-0.05-0.2-0.07l-0.03-.06h-0.06c-0.01-.02-0.02-0.05-0.03-0.07h-0.07l-0.03-.06h-0.07a0.488,0.488,0,0,1-.03-0.07h-0.06c-0.03-.04-0.07-0.08-0.1-0.12h-0.06c-0.04-.05-0.07-0.09-0.1-0.13h-0.06l-0.26-.29-0.26-.23v-0.06a1.826,1.826,0,0,0-.16-0.13v-0.07c-0.03-.02-0.07-0.04-0.1-0.06v-0.07l-0.06-.03c-0.01-.03-0.02-0.06-0.03-0.1h-0.04v-0.06l-0.06-.03c-0.01-.05-0.02-0.09-0.03-0.13a0.488,0.488,0,0,1-.07-0.03c-0.01-.05-0.02-0.09-0.03-0.13h-0.03v-0.07h-0.03a1.458,1.458,0,0,1-.07-0.19h-0.03c-0.01-.05-0.02-0.11-0.03-0.16h-0.04v-0.07h-0.03v-0.09h-0.03v-0.1h-0.03v-0.1h-0.03v-0.09a4.185,4.185,0,0,1-.23-2.32l0.03-.39c0.12-.36.24-0.71,0.36-1.06h0.03c0.02-.07.04-0.13,0.06-0.2h0.04v-0.06h0.03c0.01-.05.02-0.09,0.03-0.13l0.06-.03c0.01-.05.03-0.09,0.04-0.13a0.209,0.209,0,0,0,.06-0.04l0.03-.12h0.04c0.01-.04.02-0.07,0.03-0.1l0.06-.03v-0.07c0.03-.02.07-0.04,0.1-0.06v-0.07l0.06-.03a0.689,0.689,0,0,1,.04-0.1c0.05-.04.1-0.08,0.16-0.12v-0.07c0.1-.1.21-0.19,0.32-0.29l0.16-.19h0.06c0.04-.05.07-0.09,0.1-0.13h0.07a0.488,0.488,0,0,0,.03-0.07h0.03l0.03-.06h0.07a0.488,0.488,0,0,0,.03-0.07h0.06a0.209,0.209,0,0,1,.04-0.06h0.06l0.03-.06h0.07a0.488,0.488,0,0,1,.03-0.07h0.06v-0.03h0.07l0.06-.07h0.07l0.03-.06,0.16-.03v-0.03h0.06v-0.04c0.05-.01.09-0.02,0.13-0.03v-0.03c0.36-.11.71-0.22,1.07-0.32,0.19-.01.38-0.02,0.58-0.04v-0.03l0.77,0.03v0.04h0.23v0.03h0.16v0.03h0.16v0.03c0.08,0.01.17,0.02,0.26,0.04v0.03c0.19,0.05.38,0.11,0.58,0.16v0.03h0.06v0.03h0.1v0.04c0.04,0.01.08,0.02,0.13,0.03v0.03h0.09v0.03c0.05,0.01.09,0.02,0.13,0.03v0.04h0.07v0.03h0.06v0.03h0.07v0.03h0.06v0.04h0.06v0.03h0.07v0.03h0.06v0.03h0.07v0.03a0.5,0.5,0,0,0,.13.04l0.03,0.06a1.458,1.458,0,0,1,.19.07l0.03,0.06h0.07v0.03a0.689,0.689,0,0,1,.1.04v-0.04a2.4,2.4,0,0,0,.45-0.45l0.93-.9v-0.07h0.03a0.55,0.55,0,0,0,.07-0.09c0.11-.1.21-0.2,0.32-0.29,0.01-.03.02-0.07,0.03-0.1a0.648,0.648,0,0,0,.23-0.26c-0.03-.02-0.07-0.04-0.1-0.06v-0.03h-0.06a0.865,0.865,0,0,0-.07-0.1h-0.06l-0.1-.13h-0.06l-0.03-.06h-0.07a0.879,0.879,0,0,0-.06-0.1h-0.07a0.488,0.488,0,0,1-.03-0.07h-0.07l-0.03-.06h-0.06l-0.03-.06h-0.07a0.488,0.488,0,0,0-.03-0.07h-0.07l-0.03-.06a0.929,0.929,0,0,1-.13-0.04l-0.03-.06h-0.06v-0.03h-0.07l-0.06-.07h-0.07l-0.03-.06a1.458,1.458,0,0,1-.19-0.07v-0.03h-0.07v-0.03h-0.06v-0.03c-0.07-.02-0.13-0.05-0.19-0.07v-0.03h-0.1v-0.03l-0.13-.03v-0.04h-0.1v-0.03h-0.06v-0.03h-0.1v-0.03h-0.06v-0.03a1.416,1.416,0,0,0-.2-0.04c-0.22-.09-0.5-0.18-0.74-0.26l-0.29-.03v-0.03h-0.16v-0.03h-0.19v-0.03h-0.23v-0.04h-0.32v-0.03h-0.32a3.794,3.794,0,0,0-.84.03h-0.32c-0.26.03-.52,0.05-0.78,0.07v0.03h-0.16v0.03h-0.16v0.03h-0.13v0.04h-0.16v0.03h-0.09v0.03h-0.13v0.03h-0.1V2956h-0.1v0.03h-0.09v0.03h-0.1v0.03a1.286,1.286,0,0,0-.19.04v0.03h-0.07v0.03h-0.09v0.03h-0.07v0.03h-0.1v0.04l-0.12.03v0.03h-0.1v0.03c-0.07.02-.13,0.05-0.19,0.07v0.03h-0.07v0.03l-0.13.03a0.488,0.488,0,0,1-.03.07c-0.06.02-.13,0.04-0.19,0.06-0.01.02-.03,0.05-0.04,0.07l-0.12.03a0.209,0.209,0,0,0-.04.06,0.5,0.5,0,0,1-.13.04l-0.03.06h-0.06v0.03a0.418,0.418,0,0,0-.1.04l-0.03.06h-0.07a0.879,0.879,0,0,0-.06.1h-0.06a0.209,0.209,0,0,0-.04.06h-0.06a0.488,0.488,0,0,0-.03.07h-0.04l-0.03.06h-0.06a1.132,1.132,0,0,0-.1.13h-0.064c-0.043.05-.086,0.11-0.129,0.16h-0.064c-0.161.17-.323,0.34-0.484,0.52-0.1.08-.193,0.17-0.29,0.25v0.07c-0.064.05-.129,0.11-0.193,0.16v0.06a1.124,1.124,0,0,1-.129.1v0.07l-0.1.06v0.06a0.55,0.55,0,0,1-.1.07v0.06c-0.021.01-.042,0.03-0.064,0.04v0.06l-0.1.06v0.07l-0.064.03c-0.011.03-.022,0.07-0.032,0.1H998.2c-0.01.04-.021,0.08-0.032,0.13l-0.064.03c-0.011.04-.022,0.09-0.032,0.13l-0.065.03v0.07l-0.064.06v0.06h-0.033v0.07l-0.064.03c-0.011.04-.022,0.09-0.032,0.13h-0.033c-0.01.04-.021,0.09-0.032,0.13H997.72v0.1h-0.032v0.06h-0.032c-0.011.04-.022,0.09-0.033,0.13h-0.032v0.1h-0.032c-0.011.04-.022,0.08-0.032,0.12h-0.033c-0.01.07-.021,0.13-0.032,0.2H997.43v0.06H997.4v0.1h-0.033v0.1h-0.032v0.09H997.3v0.13h-0.032v0.1h-0.032v0.13H997.2v0.13a6,6,0,0,0-.225,1.87,3.721,3.721,0,0,0,.032.83c0.021,0.25.043,0.5,0.064,0.75h0.033c0.021,0.16.043,0.32,0.064,0.48q0.21,0.63.419,1.26h0.032c0.011,0.04.022,0.08,0.033,0.13h0.032v0.09h0.032c0.022,0.07.043,0.13,0.064,0.2h0.033v0.06h0.032v0.07h0.032c0.022,0.06.043,0.12,0.065,0.19l0.064,0.03c0.022,0.07.043,0.13,0.065,0.19a0.225,0.225,0,0,0,.064.04c0.011,0.04.021,0.08,0.032,0.13l0.065,0.03v0.06l0.064,0.03v0.07l0.065,0.03v0.07H998.4l0.032,0.09,0.064,0.03v0.07l0.1,0.06v0.07l0.1,0.06v0.07l0.129,0.09v0.07l0.1,0.06v0.03a0.212,0.212,0,0,0,.064.04v0.06c0.1,0.09.193,0.17,0.29,0.26v0.06c0.075,0.07.15,0.13,0.226,0.2,0.01,0.02.021,0.04,0.032,0.06h0.064c0.011,0.02.022,0.05,0.033,0.07h0.032c0.064,0.07.129,0.15,0.193,0.22h0.065c0.043,0.06.086,0.11,0.128,0.16h0.06a0.251,0.251,0,0,1,.04.07h0.03l0.03,0.06h0.07c0.02,0.03.04,0.07,0.06,0.1h0.07a0.879,0.879,0,0,1,.06.1h0.06c0.01,0.02.03,0.04,0.04,0.06l0.09,0.03v0.03h0.07a0.488,0.488,0,0,0,.03.07c0.03,0.01.06,0.02,0.1,0.03v0.03c0.04,0.01.08,0.03,0.13,0.04l0.03,0.06c0.06,0.02.13,0.04,0.19,0.06a0.488,0.488,0,0,0,.03.07c0.07,0.02.13,0.04,0.2,0.06v0.04h0.06v0.03h0.07v0.03c0.06,0.02.12,0.04,0.19,0.07v0.03h0.1v0.03l0.12,0.03v0.03h0.1v0.04h0.07v0.03c0.06,0.01.12,0.02,0.19,0.03v0.03h0.06v0.04h0.1v0.03h0.1v0.03h0.09v0.03l0.23,0.03v0.04l0.26,0.03v0.03h0.13v0.03h0.12v0.04h0.17v0.03h0.16v0.03h0.19v0.03h0.23v0.03h0.29v0.04h0.51v0.03a1.509,1.509,0,0,0,.61-0.03h0.49v-0.04h0.32c0.42-.08.84-0.17,1.26-0.25v-0.04h0.09v-0.03h0.1v-0.03h0.1v-0.03h0.09v-0.03h0.1v-0.04l0.19-.03v-0.03h0.07v-0.03h0.09v-0.04h0.07v-0.03h0.1v-0.03l0.12-.03v-0.03h0.07v-0.04c0.1-.03.19-0.06,0.29-0.09a0.488,0.488,0,0,1,.03-0.07h0.07v-0.03h0.06l0.06-.07h0.07l0.03-.06,0.13-.03a0.488,0.488,0,0,0,.03-0.07c0.05-.01.09-0.02,0.13-0.03l0.03-.06h0.07a0.879,0.879,0,0,1,.06-0.1h0.07l0.03-.06h0.06a0.435,0.435,0,0,1,.04-0.07l0.09-.03c0.02-.03.05-0.07,0.07-0.1h0.06l0.13-.16h0.07c0.11-.13.23-0.26,0.35-0.39,0.13-.11.26-0.23,0.39-0.35v-0.06a0.642,0.642,0,0,1,.13-0.1v-0.07l0.12-.09v-0.07a0.879,0.879,0,0,0,.1-0.06v-0.07c0.03-.02.07-0.04,0.1-0.06v-0.07l0.06-.03,0.03-.09h0.04v-0.07l0.06-.03c0.01-.04.02-0.09,0.03-0.13,0.02-.01.05-0.02,0.07-0.03,0.02-.07.04-0.13,0.06-0.2,0.02-.01.05-0.02,0.07-0.03,0.02-.06.04-0.13,0.06-0.19h0.03v-0.07h0.04c0.02-.06.04-0.12,0.06-0.19h0.03c0.01-.05.02-0.11,0.03-0.16h0.04v-0.06h0.03v-0.1h0.03v-0.07h0.03a1.286,1.286,0,0,1,.04-0.19h0.03v-0.06h0.03c0.01-.07.02-0.13,0.03-0.2h0.03v-0.09h0.04c0.01-.08.02-0.15,0.03-0.23h0.03c0.01-.08.02-0.15,0.03-0.23h0.04v-0.16h0.03v-0.13h0.03v-0.16h0.03v-0.16h0.03v-0.16H1013l0.03-.45h0.03v-0.29h0.03v-0.39h0.04v-1.67h-0.04v-0.17Zm5.1-2.38v2.35h-2.36v2.39h2.36v2.35h2.38v-2.35h2.32a2.816,2.816,0,0,0,.03-0.78v-1.58h-0.03v-0.03h-2.32v-2.35h-2.38Z" transform="translate(-990.031 -2943)"/>
</svg>
