<?xml version="1.0" encoding="utf-8"?>
<!-- Generator: Adobe Illustrator 22.1.0, SVG Export Plug-In . SVG Version: 6.00 Build 0)  -->
<svg version="1.1" id="Capa_1" xmlns="http://www.w3.org/2000/svg" xmlns:xlink="http://www.w3.org/1999/xlink" x="0px" y="0px"
	 viewBox="0 0 512 512" style="enable-background:new 0 0 512 512;" xml:space="preserve">
<style type="text/css">
	.st0{fill:url(#SVGID_1_);}
	.st1{fill:url(#SVGID_2_);}
	.st2{fill:url(#SVGID_3_);}
	.st3{fill:url(#SVGID_4_);}
</style>
<g>
	<g>
		<linearGradient id="SVGID_1_" gradientUnits="userSpaceOnUse" x1="19.3143" y1="528.3503" x2="528.3143" y2="20.3503">
			<stop  offset="0" style="stop-color:#F51C1C"/>
			<stop  offset="1" style="stop-color:#FE8605"/>
		</linearGradient>
		<path class="st0" d="M507.7,297.5c-10.3-17.8-33.1-24-51-13.9c-3.2,1.6-44.8,22-79,36.4c-3.8,1.6-5.6,6-4,9.8s6,5.6,9.8,4
			c35.9-15.1,79.5-36.7,80-36.9c0.1-0.1,0.3-0.1,0.4-0.2c10.7-6.2,24.5-2.5,30.7,8.2c7.2,12.4-4,26.1-9.5,31.6
			c-37.2,30-140.3,107.1-175,107.1c-38.4,0-146.1-22.8-172.5-28.5V292.7c52.2-7.7,79.9,2,137.9,22.2c17.6,6.1,37.6,13.1,61.9,20.9
			c3.6,1.6,13.7,7.2,9.8,20c-2.3,7.8-9.8,15.2-20.8,13.1c-14.8-2.8-101.7-14.6-105.4-15.1c-4.1-0.6-7.9,2.3-8.4,6.4
			c-0.6,4.1,2.3,7.9,6.4,8.4c0.9,0.1,90.2,12.2,104.6,14.9c2.2,0.4,4.4,0.6,6.5,0.6c15.9,0,27.6-11.4,31.5-24.2
			c4-13.4-0.2-30.4-18.5-38.2c0,0-0.1,0-0.1,0c0,0,0,0-0.1,0c-0.1,0-0.2-0.1-0.3-0.1s-0.2-0.1-0.3-0.1
			c-24.3-7.8-44.3-14.7-61.9-20.9c-57.8-20.2-88.3-30.8-142.9-23.1v-6.3c0-4.1-3.4-7.5-7.5-7.5h-22.5v-7.5c0-4.1-3.4-7.5-7.5-7.5
			H7.5c-4.1,0-7.5,3.4-7.5,7.5v165c0,4.1,3.4,7.5,7.5,7.5c4.1,0,7.5-3.4,7.5-7.5V263.8h77.7v180h-15v-7.5c0-4.1-3.4-7.5-7.5-7.5
			s-7.5,3.4-7.5,7.5v7.5H7.5c-4.1,0-7.5,3.4-7.5,7.5s3.4,7.5,7.5,7.5h92.7c4.1,0,7.5-3.4,7.5-7.5v-7.9h22.5c4.1,0,7.5-3.4,7.5-7.5
			v-5.3c31.4,6.8,133.5,28.2,172.5,28.2c20.5,0,56.9-18.3,111.1-55.8c39.1-27.1,73.2-54.6,73.6-54.8c0.2-0.2,0.4-0.3,0.6-0.5
			C511.8,331.2,516.4,312.5,507.7,297.5z M122.7,421.1C122.7,421.1,122.7,421.2,122.7,421.1v7.2h-15v0V278.8h15L122.7,421.1
			L122.7,421.1z"/>
	</g>
</g>
<g>
	<g>
		<linearGradient id="SVGID_2_" gradientUnits="userSpaceOnUse" x1="-29.2828" y1="479.6575" x2="479.7172" y2="-28.3425">
			<stop  offset="0" style="stop-color:#F51C1C"/>
			<stop  offset="1" style="stop-color:#FE8605"/>
		</linearGradient>
		<path class="st1" d="M420.3,53.2H190.3c-15.2,0-27.5,12.3-27.5,27.5v130c0,15.2,12.3,27.5,27.5,27.5h230.1
			c15.2,0,27.5-12.3,27.5-27.5v-130C447.8,65.6,435.5,53.2,420.3,53.2z M177.8,80.7c0-6.9,5.6-12.5,12.5-12.5h230.1
			c6.9,0,12.5,5.6,12.5,12.5v2.5H177.8V80.7z M432.8,210.8c0,6.9-5.6,12.5-12.5,12.5H190.3c-6.9,0-12.5-5.6-12.5-12.5v-72.5h255.1
			V210.8z M177.8,123.2v-25h255.1v25H177.8z"/>
	</g>
</g>
<g>
	<g>
		<linearGradient id="SVGID_3_" gradientUnits="userSpaceOnUse" x1="-46.7178" y1="462.1883" x2="462.2822" y2="-45.8117">
			<stop  offset="0" style="stop-color:#F51C1C"/>
			<stop  offset="1" style="stop-color:#FE8605"/>
		</linearGradient>
		<path class="st2" d="M270.3,173.3h-70c-4.1,0-7.5,3.4-7.5,7.5s3.4,7.5,7.5,7.5h70c4.1,0,7.5-3.4,7.5-7.5S274.4,173.3,270.3,173.3z
			"/>
	</g>
</g>
<g>
	<g>
		<linearGradient id="SVGID_4_" gradientUnits="userSpaceOnUse" x1="35.6403" y1="544.7086" x2="544.6403" y2="36.7085">
			<stop  offset="0" style="stop-color:#F51C1C"/>
			<stop  offset="1" style="stop-color:#FE8605"/>
		</linearGradient>
		<path class="st3" d="M410.3,173.3h-20c-4.1,0-7.5,3.4-7.5,7.5s3.4,7.5,7.5,7.5h20c4.1,0,7.5-3.4,7.5-7.5S414.5,173.3,410.3,173.3z
			"/>
	</g>
</g>
</svg>
