<?xml version="1.0" encoding="utf-8"?>
<!-- Generator: Adobe Illustrator 22.1.0, SVG Export Plug-In . SVG Version: 6.00 Build 0)  -->
<svg version="1.1" id="Capa_1" xmlns="http://www.w3.org/2000/svg" xmlns:xlink="http://www.w3.org/1999/xlink" x="0px" y="0px"
	 viewBox="0 0 480 480" style="enable-background:new 0 0 480 480;" xml:space="preserve">
<style type="text/css">
	.st0{fill:url(#SVGID_1_);}
	.st1{fill:url(#SVGID_2_);}
	.st2{fill:url(#SVGID_3_);}
	.st3{fill:url(#SVGID_4_);}
	.st4{fill:url(#SVGID_5_);}
</style>
<g>
	<g>
		<linearGradient id="SVGID_1_" gradientUnits="userSpaceOnUse" x1="23.8418" y1="356" x2="456.1582" y2="356">
			<stop  offset="0" style="stop-color:#0083B0"/>
			<stop  offset="1" style="stop-color:#00B4DB"/>
		</linearGradient>
		<path class="st0" d="M454.8,293.9c-6.7-30-36.5-48.8-66.4-42.1c-1.5,0.3-3,0.7-4.5,1.2v-13c0-4.4-3.6-8-8-8h-320c-4.4,0-8,3.6-8,8
			v24c0.1,59.5,27.7,115.6,74.8,152H31.8c-4.4,0-8,3.6-8,8c0,30.9,25.1,56,56,56h272c30.9,0,56-25.1,56-56c0-4.4-3.6-8-8-8H309
			c15-11.6,28.1-25.3,39.1-40.8l64.6-14.9C442.7,353.6,461.5,323.8,454.8,293.9z M379.7,303.4L379.7,303.4l18.3-3.7
			c4.4-0.9,8.8,1.9,9.7,6.3c0.9,4.3-1.7,8.5-5.9,9.6l-27.7,7.9C376.4,316.9,378.2,310.2,379.7,303.4z M391,432
			c-3.8,18.6-20.2,32-39.2,32h-272c-19,0-35.4-13.4-39.2-32H391z M280.5,416H151.2c-54-31.6-87.2-89.4-87.3-152v-16h304v16
			C367.7,326.6,334.5,384.4,280.5,416z M432.4,329.3c-5.6,7.8-13.9,13.3-23.2,15.4l-49,11.3c2.5-4.5,4.7-9.1,6.8-13.7l39.3-11.2
			c12.9-3.6,20.3-17,16.7-29.9c-3.5-12.2-15.7-19.6-28.1-17.1l-12.5,2.5c0.7-5.5,1-11.1,1.2-16.7l4-1.3c12.1-4.1,25.4-2.1,35.7,5.5
			v0C441.1,286.7,445.2,311.5,432.4,329.3z"/>
	</g>
</g>
<g>
	<g>
		<linearGradient id="SVGID_2_" gradientUnits="userSpaceOnUse" x1="71.8419" y1="108" x2="303.8419" y2="108">
			<stop  offset="0" style="stop-color:#0083B0"/>
			<stop  offset="1" style="stop-color:#00B4DB"/>
		</linearGradient>
		<path class="st1" d="M263.8,48c-13.3,0-24-10.7-24-24V0h-16v24c0,22.1,17.9,40,40,40c13.3,0,24,10.7,24,24s-10.7,24-24,24h-88
			c-57.4,0.1-103.9,46.6-104,104h16c0.1-48.6,39.4-87.9,88-88h88c22.1,0,40-17.9,40-40S285.9,48,263.8,48z"/>
	</g>
</g>
<g>
	<g>
		<linearGradient id="SVGID_3_" gradientUnits="userSpaceOnUse" x1="291.8419" y1="108" x2="415.8419" y2="108">
			<stop  offset="0" style="stop-color:#0083B0"/>
			<stop  offset="1" style="stop-color:#00B4DB"/>
		</linearGradient>
		<path class="st2" d="M319.8,152h36c33.1,0,60-26.9,60-60s-26.9-60-60-60h-4c-13.3,0-24-10.7-24-24V0h-16v8c0,22.1,17.9,40,40,40h4
			c24.3,0,44,19.7,44,44s-19.7,44-44,44h-36c-15.5,0-28,12.5-28,28s12.5,28,28,28c13.3,0,24,10.7,24,24h16c0-22.1-17.9-40-40-40
			c-6.6,0-12-5.4-12-12S313.2,152,319.8,152z"/>
	</g>
</g>
<g>
	<g>
		<linearGradient id="SVGID_4_" gradientUnits="userSpaceOnUse" x1="84.0899" y1="330.248" x2="132.8419" y2="330.248">
			<stop  offset="0" style="stop-color:#0083B0"/>
			<stop  offset="1" style="stop-color:#00B4DB"/>
		</linearGradient>
		<path class="st3" d="M99.7,294.2l-15.6,3.5c4.7,20.8,15.2,49.6,38.8,68.5l10-12.5C112.9,337.8,103.8,312.6,99.7,294.2z"/>
	</g>
</g>
<g>
	<g>
		<linearGradient id="SVGID_5_" gradientUnits="userSpaceOnUse" x1="79.8419" y1="272.508" x2="97.0179" y2="272.508">
			<stop  offset="0" style="stop-color:#0083B0"/>
			<stop  offset="1" style="stop-color:#00B4DB"/>
		</linearGradient>
		<path class="st4" d="M95.8,264h-16c0.1,5.7,0.5,11.4,1.3,17l15.9-2C96.3,274,96,269,95.8,264z"/>
	</g>
</g>
</svg>
