<?xml version="1.0" encoding="utf-8"?>
<!-- Generator: Adobe Illustrator 22.1.0, SVG Export Plug-In . SVG Version: 6.00 Build 0)  -->
<svg version="1.1" id="Capa_1" xmlns="http://www.w3.org/2000/svg" xmlns:xlink="http://www.w3.org/1999/xlink" x="0px" y="0px"
	 viewBox="0 0 480 480" style="enable-background:new 0 0 480 480;" xml:space="preserve">
<style type="text/css">
	.st0{fill:url(#SVGID_1_);}
	.st1{fill:url(#SVGID_2_);}
	.st2{fill:url(#SVGID_3_);}
	.st3{fill:url(#SVGID_4_);}
	.st4{fill:url(#SVGID_5_);}
	.st5{fill:url(#SVGID_6_);}
	.st6{fill:url(#SVGID_7_);}
	.st7{fill:url(#SVGID_8_);}
	.st8{fill:url(#SVGID_9_);}
	.st9{fill:url(#SVGID_10_);}
	.st10{fill:url(#SVGID_11_);}
	.st11{fill:url(#SVGID_12_);}
	.st12{fill:url(#SVGID_13_);}
</style>
<linearGradient id="SVGID_1_" gradientUnits="userSpaceOnUse" x1="-523.3288" y1="-40.0138" x2="-81.3289" y2="413.9861" gradientTransform="matrix(1 0 0 -1 593.8 482)">
	<stop  offset="0" style="stop-color:#0083B0"/>
	<stop  offset="1" style="stop-color:#00B4DB"/>
</linearGradient>
<path class="st0" d="M319.7,297.1c4,0.1,7.9,1.8,10.6,4.8l79.9,86.6l11.8-10.9L367.8,319h0.2V103c0-22.1-17.9-40-40-40h-32v16h32
	c13.3,0,24,10.7,24,24v8h-56v16h56v174.9L342,291c-5.7-6.2-13.6-9.7-22-9.9c-2.1-0.1-4.3,0-6.4,0.4l6.1-24.6l6.5-25.9h9.8v-16h-16
	c-3.7,0-6.9,2.5-7.8,6.1l-6.5,25.9H184c-4.4,0-8,3.6-8,8c0,0.7,0.1,1.3,0.2,1.9l16,64c0.9,3.6,4.1,6.1,7.8,6.1h92.5
	c1.1,1.9,2.3,3.7,3.8,5.4l6.3,7.1c-1.5,2.2-3.9,3.5-6.6,3.5H192v16h104c6.6,0,12.8-2.7,17.3-7.5L343,385
	c-5.6,20.7-2.9,42.8,7.7,61.5c-3.2,9.9-12.4,16.5-22.7,16.5H168c-13.3,0-24-10.7-24-24l0,0v-8h184v-16H144V191h-16v248
	c0,22.1,17.9,40,40,40h160c13.3,0,25.8-6.6,33.2-17.7c2.7,2.9,5.5,5.7,8.5,8.2l9.1,7.6l10.2-12.3l-9.1-7.6
	c-21-17.4-29.1-45.9-20.4-71.7c0.9-2.7,0.3-5.7-1.6-7.8l-49.7-55.9c-5.2-5.9-4.9-14.8,0.6-20.3C311.8,298.7,315.6,297.1,319.7,297.1
	z M198.2,279l-4-16h22.7l2,16H198.2z M206.2,311l-4-16h18.7l2,16H206.2z M256.9,311h-17.9l-2-16h21.9L256.9,311z M260.9,279h-25.9
	l-2-16h29.9L260.9,279z M288.5,311h-15.5l2-16h18.5C290.5,299.8,288.7,305.3,288.5,311z M297.7,279h-20.7l2-16h22.7L297.7,279z"/>
<linearGradient id="SVGID_2_" gradientUnits="userSpaceOnUse" x1="71.6015" y1="-41.1041" x2="513.6015" y2="412.8958" gradientTransform="matrix(1 0 0 -1 0 482)">
	<stop  offset="0" style="stop-color:#0083B0"/>
	<stop  offset="1" style="stop-color:#00B4DB"/>
</linearGradient>
<circle class="st1" cx="208" cy="383" r="16"/>
<linearGradient id="SVGID_3_" gradientUnits="userSpaceOnUse" x1="112.6699" y1="-81.0927" x2="554.6699" y2="372.9073" gradientTransform="matrix(1 0 0 -1 0 482)">
	<stop  offset="0" style="stop-color:#0083B0"/>
	<stop  offset="1" style="stop-color:#00B4DB"/>
</linearGradient>
<circle class="st2" cx="288" cy="383" r="16"/>
<linearGradient id="SVGID_4_" gradientUnits="userSpaceOnUse" x1="-703.003" y1="134.9202" x2="-261.003" y2="588.9202" gradientTransform="matrix(1 0 0 -1 593.8 482)">
	<stop  offset="0" style="stop-color:#0083B0"/>
	<stop  offset="1" style="stop-color:#00B4DB"/>
</linearGradient>
<path class="st3" d="M248-1H40C22.3-1,8,13.3,8,31v112c0,17.7,14.3,32,32,32h208c17.7,0,32-14.3,32-32V31C280,13.3,265.7-1,248-1z
	 M264,143c0,8.8-7.2,16-16,16H40c-8.8,0-16-7.2-16-16V31c0-8.8,7.2-16,16-16h208c8.8,0,16,7.2,16,16V143z"/>
<linearGradient id="SVGID_5_" gradientUnits="userSpaceOnUse" x1="-145.6278" y1="170.3752" x2="296.3721" y2="624.3752" gradientTransform="matrix(1 0 0 -1 0 482)">
	<stop  offset="0" style="stop-color:#0083B0"/>
	<stop  offset="1" style="stop-color:#00B4DB"/>
</linearGradient>
<rect x="40" y="39" class="st4" width="144" height="16"/>
<linearGradient id="SVGID_6_" gradientUnits="userSpaceOnUse" x1="-656.065" y1="89.2225" x2="-214.065" y2="543.2225" gradientTransform="matrix(1 0 0 -1 593.8 482)">
	<stop  offset="0" style="stop-color:#0083B0"/>
	<stop  offset="1" style="stop-color:#00B4DB"/>
</linearGradient>
<path class="st5" d="M236.3,90.3c-7.5-4.4-16.8-4.4-24.3,0c-3.6-2.1-7.7-3.3-11.9-3.3c-13.3,0-24,10.7-24,24s10.7,24,24,24
	c4.2,0,8.3-1.2,11.9-3.3c11.4,6.7,26.1,2.9,32.9-8.5C251.5,111.8,247.7,97,236.3,90.3z M200,119c-4.4,0-8-3.6-8-8s3.6-8,8-8
	s8,3.6,8,8S204.4,119,200,119z M224,119c-0.5,0-1-0.1-1.4-0.2c1.9-5,1.9-10.6,0-15.6c0.5-0.1,0.9-0.2,1.4-0.2c4.4,0,8,3.6,8,8
	S228.4,119,224,119z"/>
<linearGradient id="SVGID_7_" gradientUnits="userSpaceOnUse" x1="-154.4913" y1="179.0087" x2="287.5087" y2="633.0087" gradientTransform="matrix(1 0 0 -1 0 482)">
	<stop  offset="0" style="stop-color:#0083B0"/>
	<stop  offset="1" style="stop-color:#00B4DB"/>
</linearGradient>
<rect x="40" y="87" class="st6" width="16" height="16"/>
<linearGradient id="SVGID_8_" gradientUnits="userSpaceOnUse" x1="-138.06" y1="163.0173" x2="303.94" y2="617.0173" gradientTransform="matrix(1 0 0 -1 0 482)">
	<stop  offset="0" style="stop-color:#0083B0"/>
	<stop  offset="1" style="stop-color:#00B4DB"/>
</linearGradient>
<rect x="72" y="87" class="st7" width="16" height="16"/>
<linearGradient id="SVGID_9_" gradientUnits="userSpaceOnUse" x1="-121.6336" y1="147.0209" x2="320.3663" y2="601.0208" gradientTransform="matrix(1 0 0 -1 0 482)">
	<stop  offset="0" style="stop-color:#0083B0"/>
	<stop  offset="1" style="stop-color:#00B4DB"/>
</linearGradient>
<rect x="104" y="87" class="st8" width="16" height="16"/>
<linearGradient id="SVGID_10_" gradientUnits="userSpaceOnUse" x1="-105.2072" y1="131.0246" x2="336.7929" y2="585.0245" gradientTransform="matrix(1 0 0 -1 0 482)">
	<stop  offset="0" style="stop-color:#0083B0"/>
	<stop  offset="1" style="stop-color:#00B4DB"/>
</linearGradient>
<rect x="136" y="87" class="st9" width="16" height="16"/>
<linearGradient id="SVGID_11_" gradientUnits="userSpaceOnUse" x1="-113.8514" y1="139.4487" x2="328.1486" y2="593.4487" gradientTransform="matrix(1 0 0 -1 0 482)">
	<stop  offset="0" style="stop-color:#0083B0"/>
	<stop  offset="1" style="stop-color:#00B4DB"/>
</linearGradient>
<rect x="40" y="119" class="st10" width="112" height="16"/>
<linearGradient id="SVGID_12_" gradientUnits="userSpaceOnUse" x1="-421.4427" y1="-139.2" x2="20.5573" y2="314.8" gradientTransform="matrix(1 0 0 -1 593.8 482)">
	<stop  offset="0" style="stop-color:#0083B0"/>
	<stop  offset="1" style="stop-color:#00B4DB"/>
</linearGradient>
<path class="st11" d="M457.1,307.8l-67.2-74.2L378,244.3l67.2,74.3c6.9,7.4,10.7,17.1,10.7,27.2V479h16V345.9
	C472,331.7,466.7,318.1,457.1,307.8z"/>
<linearGradient id="SVGID_13_" gradientUnits="userSpaceOnUse" x1="-587.3508" y1="22.3281" x2="-145.3508" y2="476.3282" gradientTransform="matrix(1 0 0 -1 593.8 482)">
	<stop  offset="0" style="stop-color:#0083B0"/>
	<stop  offset="1" style="stop-color:#00B4DB"/>
</linearGradient>
<path class="st12" d="M267.6,200.3l-11.6,7.7V191h-16v17.1l-11.6-7.7l-8.9,13.3l24,16c2.7,1.8,6.2,1.8,8.9,0l24-16L267.6,200.3z"/>
</svg>
