<svg xmlns="http://www.w3.org/2000/svg" width="40" height="40" viewBox="0 0 40 40">
  <metadata><?xpacket begin="﻿" id="W5M0MpCehiHzreSzNTczkc9d"?>
<x:xmpmeta xmlns:x="adobe:ns:meta/" x:xmptk="Adobe XMP Core 5.6-c140 79.160451, 2017/05/06-01:08:21        ">
   <rdf:RDF xmlns:rdf="http://www.w3.org/1999/02/22-rdf-syntax-ns#">
      <rdf:Description rdf:about=""/>
   </rdf:RDF>
</x:xmpmeta>
                                                                                                    
                                                                                                    
                                                                                                    
                                                                                                    
                                                                                                    
                                                                                                    
                                                                                                    
                                                                                                    
                                                                                                    
                                                                                                    
                                                                                                    
                                                                                                    
                                                                                                    
                                                                                                    
                                                                                                    
                                                                                                    
                                                                                                    
                                                                                                    
                                                                                                    
                                                                                                    
                           
<?xpacket end="w"?></metadata>
<defs>
    <style>
      .cls-1 {
        fill: #fff;
        fill-rule: evenodd;
      }
    </style>
  </defs>
  <path id="skype" class="cls-1" d="M1250,2943a20,20,0,1,0,20,20A20,20,0,0,0,1250,2943Zm5.42,31.83a6.543,6.543,0,0,1-3.47-1,10.995,10.995,0,0,1-13.03-10.77,10.916,10.916,0,0,1,.14-1.73,6.576,6.576,0,0,1,9.11-9.09,11.33,11.33,0,0,1,1.77-.14,10.99,10.99,0,0,1,11.02,10.96,12.291,12.291,0,0,1-.1,1.49A6.579,6.579,0,0,1,1255.42,2974.83Zm-6.86-13.88c-3.19-.78-1.44-3.5,1.14-3.46,2.5,0.04,3.78,2.68,4.91,2.55s2.1-1.84.32-3.37a8.185,8.185,0,0,0-6.51-1.78,5.11,5.11,0,0,0-4.87,4.69c-0.27,2.96,3.24,4.46,6.01,4.87,1.95,0.29,4.6,1.23,3,3.05-1.46,1.67-4.23.64-4.95,0.18s-1.55-2.09-2.92-2-2.04,1.88-.36,3.46c1.5,1.4,3.14,2.18,6.64,2s6.65-3.28,5.42-6.19-4.64-3.23-7.83-4h0Z" transform="translate(-1230 -2943)"/>
</svg>
