<svg xmlns="http://www.w3.org/2000/svg" width="40" height="40" viewBox="0 0 40 40">
  <metadata><?xpacket begin="﻿" id="W5M0MpCehiHzreSzNTczkc9d"?>
<x:xmpmeta xmlns:x="adobe:ns:meta/" x:xmptk="Adobe XMP Core 5.6-c140 79.160451, 2017/05/06-01:08:21        ">
   <rdf:RDF xmlns:rdf="http://www.w3.org/1999/02/22-rdf-syntax-ns#">
      <rdf:Description rdf:about=""/>
   </rdf:RDF>
</x:xmpmeta>
                                                                                                    
                                                                                                    
                                                                                                    
                                                                                                    
                                                                                                    
                                                                                                    
                                                                                                    
                                                                                                    
                                                                                                    
                                                                                                    
                                                                                                    
                                                                                                    
                                                                                                    
                                                                                                    
                                                                                                    
                                                                                                    
                                                                                                    
                                                                                                    
                                                                                                    
                                                                                                    
                           
<?xpacket end="w"?></metadata>
<defs>
    <style>
      .cls-1 {
        fill: #fff;
        fill-rule: evenodd;
      }
    </style>
  </defs>
  <path id="twitter" class="cls-1" d="M1190,2943a20,20,0,1,0,20,20A20.02,20.02,0,0,0,1190,2943Zm8.92,15.42c0.01,0.2.02,0.4,0.02,0.6a13.094,13.094,0,0,1-20.16,11.03,10,10,0,0,0,1.1.06,9.214,9.214,0,0,0,5.72-1.97,4.592,4.592,0,0,1-4.3-3.19,4.913,4.913,0,0,0,.86.08,4.776,4.776,0,0,0,1.21-.16,4.623,4.623,0,0,1-3.69-4.52v-0.05a4.59,4.59,0,0,0,2.09.57,4.577,4.577,0,0,1-2.05-3.83,4.637,4.637,0,0,1,.62-2.31,13.129,13.129,0,0,0,9.49,4.81,4.6,4.6,0,0,1,7.84-4.2,9.278,9.278,0,0,0,2.93-1.12,4.6,4.6,0,0,1-2.03,2.55,9.05,9.05,0,0,0,2.65-.73A9.3,9.3,0,0,1,1198.92,2958.42Z" transform="translate(-1170 -2943)"/>
</svg>
