<svg xmlns="http://www.w3.org/2000/svg" width="39.97" height="39.97" viewBox="0 0 39.97 39.97">
  <metadata><?xpacket begin="﻿" id="W5M0MpCehiHzreSzNTczkc9d"?>
<x:xmpmeta xmlns:x="adobe:ns:meta/" x:xmptk="Adobe XMP Core 5.6-c140 79.160451, 2017/05/06-01:08:21        ">
   <rdf:RDF xmlns:rdf="http://www.w3.org/1999/02/22-rdf-syntax-ns#">
      <rdf:Description rdf:about=""/>
   </rdf:RDF>
</x:xmpmeta>
                                                                                                    
                                                                                                    
                                                                                                    
                                                                                                    
                                                                                                    
                                                                                                    
                                                                                                    
                                                                                                    
                                                                                                    
                                                                                                    
                                                                                                    
                                                                                                    
                                                                                                    
                                                                                                    
                                                                                                    
                                                                                                    
                                                                                                    
                                                                                                    
                                                                                                    
                                                                                                    
                           
<?xpacket end="w"?></metadata>
<defs>
    <style>
      .cls-1 {
        fill: #fff;
        fill-rule: evenodd;
      }
    </style>
  </defs>
  <path id="vk" class="cls-1" d="M1129.03,2943h1.26a2.693,2.693,0,0,1,.71.04l0.9,0.03v0.03h0.29v0.03h0.29v0.03h0.26v0.04h0.22v0.03h0.2v0.03h0.19v0.03h0.19v0.04l0.36,0.03v0.03h0.16v0.03l0.29,0.03v0.04h0.13v0.03c0.18,0.03.36,0.06,0.55,0.1v0.03h0.09v0.03l0.36,0.06v0.04l0.22,0.03v0.03h0.13v0.03h0.1v0.04h0.1v0.03h0.09v0.03h0.1V2944h0.1v0.03h0.09v0.04h0.1v0.03l0.29,0.06v0.04h0.06v0.03l0.2,0.03v0.03h0.06v0.03a1.416,1.416,0,0,0,.2.04v0.03h0.06v0.03h0.1v0.03h0.06v0.04h0.1v0.03c0.04,0.01.08,0.02,0.13,0.03v0.03h0.09v0.04c0.05,0.01.09,0.02,0.13,0.03v0.03h0.1v0.03h0.06v0.03c0.05,0.01.09,0.03,0.13,0.04v0.03h0.1v0.03h0.06v0.03a0.5,0.5,0,0,1,.13.04v0.03c0.05,0.01.09,0.02,0.13,0.03V2945h0.07v0.03h0.06v0.04h0.06v0.03h0.07v0.03c0.17,0.08.34,0.15,0.51,0.23a0.209,0.209,0,0,1,.04.06h0.06v0.03h0.07v0.04h0.06l0.07,0.06h0.06l0.03,0.06h0.07v0.04h0.06l0.03,0.06a1.587,1.587,0,0,1,.2.07l0.03,0.06h0.06v0.03h0.07v0.03a0.355,0.355,0,0,0,.09.04c0.01,0.02.03,0.04,0.04,0.06,0.04,0.01.08,0.02,0.13,0.03a0.488,0.488,0,0,0,.03.07h0.06l0.03,0.06h0.07c0.01,0.02.02,0.05,0.03,0.07l0.13,0.03v0.03c0.03,0.01.06,0.02,0.1,0.03a0.488,0.488,0,0,0,.03.07h0.06a0.209,0.209,0,0,0,.04.06h0.06c0.02,0.03.04,0.07,0.06,0.1h0.07v0.03c0.03,0.01.06,0.02,0.1,0.03a0.488,0.488,0,0,0,.03.07h0.06l0.03,0.06a0.3,0.3,0,0,1,.1.04,0.55,0.55,0,0,0,.07.09h0.06a0.488,0.488,0,0,1,.03.07h0.07a1.463,1.463,0,0,1,.09.13h0.07l0.06,0.09h0.07c0.02,0.03.04,0.07,0.06,0.1h0.07a1.463,1.463,0,0,1,.09.13h0.07a1.826,1.826,0,0,0,.13.16h0.06l0.03,0.06a0.607,0.607,0,0,0,.1.07v0.03h0.06a1.826,1.826,0,0,1,.13.16h0.07c0.06,0.08.13,0.15,0.19,0.23,0.03,0.01.06,0.02,0.1,0.03,0.12,0.13.23,0.26,0.35,0.39h0.03c0.01,0.02.03,0.04,0.04,0.06h0.06l0.26,0.29c0.09,0.09.19,0.17,0.29,0.26v0.06c0.11,0.1.21,0.2,0.32,0.29a0.359,0.359,0,0,0,.07.1h0.03v0.06a2.848,2.848,0,0,0,.26.23v0.06c0.06,0.06.12,0.11,0.19,0.17v0.06l0.06,0.03v0.03c0.04,0.03.07,0.05,0.1,0.07v0.06a1.132,1.132,0,0,0,.13.1v0.07a1.463,1.463,0,0,0,.13.09v0.07l0.06,0.03c0.01,0.03.02,0.06,0.03,0.1a1.463,1.463,0,0,1,.13.09v0.07a0.879,0.879,0,0,1,.1.06v0.07a0.879,0.879,0,0,0,.1.06v0.06a0.209,0.209,0,0,0,.06.04v0.06a0.607,0.607,0,0,1,.1.07v0.06h0.03c0.01,0.03.02,0.06,0.03,0.1,0.02,0.01.05,0.02,0.07,0.03v0.06a0.55,0.55,0,0,0,.09.07v0.06c0.02,0.01.05,0.02,0.07,0.03v0.07l0.06,0.03v0.07c0.02,0.01.05,0.02,0.07,0.03v0.06a0.209,0.209,0,0,1,.06.04l0.03,0.12c0.02,0.01.05,0.03,0.07,0.04v0.06l0.06,0.03v0.07c0.02,0.01.05,0.02,0.07,0.03,0.01,0.04.02,0.09,0.03,0.13l0.06,0.03a0.647,0.647,0,0,0,.04.13l0.06,0.03c0.01,0.05.02,0.09,0.03,0.13,0.02,0.01.05,0.02,0.07,0.03V2953l0.06,0.06v0.07a0.488,0.488,0,0,0,.07.03v0.06h0.03v0.07l0.06,0.06v0.07c0.02,0.01.05,0.02,0.07,0.03,0.07,0.17.15,0.34,0.22,0.52h0.03a0.564,0.564,0,0,1,.04.12h0.03c0.01,0.05.02,0.09,0.03,0.13h0.03v0.07h0.04v0.06h0.03v0.07h0.03v0.06h0.03c0.01,0.04.02,0.09,0.03,0.13h0.04v0.06h0.03v0.1h0.03v0.07h0.03c0.01,0.04.03,0.08,0.04,0.12h0.03v0.1h0.03c0.01,0.04.02,0.09,0.03,0.13h0.03v0.1h0.04v0.06h0.03c0.01,0.06.02,0.11,0.03,0.16h0.03v0.1h0.04v0.06h0.03c0.22,0.68.45,1.36,0.68,2.03,0.01,0.09.02,0.18,0.03,0.26h0.03v0.13h0.03v0.13h0.03v0.13h0.04v0.13h0.03v0.16c0.07,0.23.12,0.54,0.19,0.77l0.03,0.39c0.06,0.19.08,0.48,0.13,0.68v0.26h0.04v0.32h0.03v0.35h0.03v0.49a4.364,4.364,0,0,1,.03.9,6.084,6.084,0,0,1-.03,1.29v0.35c-0.01.16-.02,0.33-0.03,0.49h-0.03v0.32h-0.04v0.26h-0.03v0.26c-0.05.18-.08,0.43-0.13,0.61v0.19c-0.13.57-.26,1.14-0.38,1.71h-0.04c-0.01.08-.02,0.15-0.03,0.23h-0.03c-0.01.07-.02,0.15-0.03,0.22h-0.04c-0.02.11-.04,0.22-0.06,0.32h-0.03v0.1h-0.04v0.1h-0.03v0.09h-0.03c-0.02.1-.04,0.2-0.06,0.29h-0.04v0.07h-0.03c-0.02.1-.04,0.19-0.06,0.29h-0.04v0.06h-0.03c-0.01.07-.02,0.13-0.03,0.2h-0.03c-0.01.05-.02,0.1-0.03,0.16h-0.04v0.06h-0.03v0.1h-0.03c-0.01.04-.02,0.09-0.03,0.13h-0.04v0.09h-0.03c-0.01.05-.02,0.09-0.03,0.13h-0.03v0.1h-0.03c-0.01.04-.03,0.09-0.04,0.13h-0.03v0.1h-0.03c-0.01.04-.02,0.08-0.03,0.13h-0.04v0.06h-0.03v0.06h-0.03c-0.02.07-.04,0.13-0.06,0.2h-0.04v0.09h-0.03c-0.02.07-.04,0.13-0.06,0.2h-0.04c-0.01.04-.02,0.08-0.03,0.13l-0.06.03v0.06l-0.07.07v0.06h-0.03v0.07h-0.03v0.06h-0.03a0.647,0.647,0,0,1-.04.13l-0.06.03v0.07h-0.03v0.06l-0.07.07v0.06l-0.06.03v0.07h-0.03v0.06c-0.02.01-.05,0.02-0.07,0.03-0.02.07-.04,0.13-0.06,0.2h-0.03a0.355,0.355,0,0,0-.04.09c-0.02.01-.04,0.03-0.06,0.04v0.06h-0.03v0.07c-0.02.01-.05,0.02-0.07,0.03-0.01.04-.02,0.08-0.03,0.13l-0.06.03v0.06a0.161,0.161,0,0,0-.07.04v0.06l-0.06.03v0.07c-0.02.01-.05,0.02-0.07,0.03v0.06h-0.03c-0.01.04-.02,0.07-0.03,0.1-0.02.01-.05,0.02-0.07,0.03v0.07h-0.03l-0.03.09a0.574,0.574,0,0,0-.07.04v0.06l-0.09.06v0.07c-0.02.01-.05,0.02-0.07,0.03v0.07l-0.09.06v0.06c-0.04.03-.07,0.05-0.1,0.07v0.06a0.359,0.359,0,0,1-.1.07v0.06c-0.03.02-.06,0.05-0.09,0.07v0.06a1.47,1.47,0,0,0-.13.1v0.06c-0.03.02-.07,0.05-0.1,0.07v0.06l-0.16.13v0.07c-0.05.04-.11,0.08-0.16,0.12v0.07a1.01,1.01,0,0,0-.16.13v0.06l-0.26.23v0.06l-0.35.32v0.07c-0.12.11-.24,0.21-0.36,0.32a7.447,7.447,0,0,1-.87.81l-0.23.26h-0.06c-0.05.06-.11,0.12-0.16,0.19h-0.07c-0.03.04-.06,0.09-0.09,0.13h-0.07a1.826,1.826,0,0,1-.13.16h-0.06l-0.03.06c-0.03.01-.07,0.03-0.1,0.04a1.059,1.059,0,0,1-.1.12h-0.06a0.879,0.879,0,0,1-.06.1h-0.07c-0.02.03-.04,0.07-0.06,0.1h-0.07a0.879,0.879,0,0,0-.06.1h-0.07l-0.06.09h-0.07a0.488,0.488,0,0,0-.03.07h-0.06c-0.02.03-.05,0.06-0.07,0.09h-0.06c-0.01.02-.02,0.05-0.03,0.07-0.04.01-.07,0.02-0.1,0.03v0.03h-0.06a0.251,0.251,0,0,0-.04.07h-0.06l-0.03.06h-0.07a0.488,0.488,0,0,0-.03.07h-0.06a0.209,0.209,0,0,0-.04.06h-0.06l-0.03.06h-0.07a0.488,0.488,0,0,1-.03.07h-0.06v0.03h-0.07a0.488,0.488,0,0,0-.03.07l-0.13.03-0.03.06-0.1.03v0.04c-0.06.02-.13,0.04-0.19,0.06a0.488,0.488,0,0,0-.03.07c-0.05.01-.09,0.02-0.13,0.03-0.01.02-.03,0.04-0.04,0.06h-0.06v0.03h-0.06l-0.07.07h-0.06c-0.01.02-.03,0.04-0.04,0.06h-0.06l-0.07.07h-0.06v0.03h-0.06v0.03h-0.07v0.03a0.5,0.5,0,0,1-.13.04l-0.03.06-0.13.03v0.04c-0.06.02-.13,0.04-0.19,0.06v0.03h-0.1v0.04c-0.04.01-.08,0.02-0.13,0.03v0.03h-0.06v0.03h-0.07v0.03a1.458,1.458,0,0,1-.19.07v0.03h-0.1v0.03a0.929,0.929,0,0,0-.13.04v0.03h-0.09v0.03c-0.05.01-.09,0.02-0.13,0.03v0.03h-0.1v0.04c-0.04.01-.08,0.02-0.13,0.03v0.03h-0.09v0.03h-0.07v0.04l-0.16.03v0.03l-0.19.03v0.03h-0.07v0.04c-0.09.02-.19,0.04-0.29,0.06v0.03h-0.06v0.04c-0.07.01-.13,0.02-0.19,0.03v0.03h-0.1v0.03h-0.1v0.03h-0.09v0.04h-0.1v0.03h-0.13v0.03h-0.1v0.03h-0.09v0.04l-0.23.03v0.03l-0.22.03v0.03c-0.13.03-.26,0.05-0.39,0.07v0.03h-0.13v0.03h-0.13v0.04h-0.13v0.03h-0.13v0.03h-0.16v0.03h-0.16v0.03h-0.16v0.04h-0.16v0.03h-0.16c-0.24.07-.56,0.09-0.81,0.16h-0.26v0.03h-0.25v0.04h-0.33v0.03h-0.35v0.03h-0.48v0.03h-0.91a6.084,6.084,0,0,1-1.29-.03h-0.35l-0.48-.03v-0.03c-0.2-.02-0.39-0.03-0.58-0.04-0.57-.09-1.14-0.19-1.71-0.29v-0.03l-0.29-.03v-0.03c-0.09-.01-0.17-0.03-0.26-0.04v-0.03h-0.13v-0.03h-0.13v-0.03h-0.13v-0.04h-0.13v-0.03h-0.09v-0.03h-0.13v-0.03h-0.1v-0.03h-0.13v-0.04h-0.09v-0.03h-0.1v-0.03h-0.1v-0.03a1.7,1.7,0,0,1-.22-0.04v-0.03h-0.1v-0.03h-0.1v-0.03h-0.06v-0.03a1.625,1.625,0,0,0-.19-0.04v-0.03l-0.2-.03v-0.03h-0.06v-0.04h-0.1v-0.03h-0.1v-0.03h-0.06v-0.03c-0.19-.07-0.39-0.13-0.58-0.2v-0.03l-0.13-.03v-0.03h-0.1v-0.03a0.564,0.564,0,0,0-.12-0.04v-0.03l-0.17-.03v-0.03a1.066,1.066,0,0,0-.19-0.07v-0.03h-0.06v-0.03h-0.07v-0.03h-0.06v-0.04h-0.07v-0.03c-0.04-.01-0.08-0.02-0.13-0.03v-0.03c-0.04-.01-0.08-0.03-0.12-0.04v-0.03c-0.05-.01-0.09-0.02-0.13-0.03v-0.03h-0.07v-0.04h-0.06v-0.03h-0.07v-0.03h-0.06v-0.03l-0.13-.03a0.488,0.488,0,0,0-.03-0.07h-0.07v-0.03h-0.06l-0.07-.07h-0.06l-0.03-.06c-0.07-.02-0.13-0.04-0.2-0.06a0.488,0.488,0,0,0-.03-0.07c-0.04-.01-0.08-0.02-0.13-0.03a0.488,0.488,0,0,1-.03-0.07l-0.13-.03-0.03-.06-0.13-.03a0.488,0.488,0,0,0-.03-0.07h-0.07l-0.03-.06h-0.06a0.251,0.251,0,0,0-.04-0.07l-0.12-.03v-0.03c-0.04-.01-0.07-0.02-0.1-0.03a0.488,0.488,0,0,0-.03-0.07h-0.07v-0.03l-0.09-.03c-0.01-.02-0.03-0.05-0.04-0.07h-0.06a0.55,0.55,0,0,0-.07-0.09h-0.06v-0.04c-0.03-.01-0.06-0.02-0.1-0.03l-0.03-.06h-0.06a0.865,0.865,0,0,0-.07-0.1h-0.06l-0.03-.06h-0.07a0.879,0.879,0,0,0-.06-0.1h-0.07c-0.02-.03-0.04-0.07-0.06-0.1h-0.07a1.463,1.463,0,0,1-.09-0.13c-0.04-.01-0.07-0.02-0.1-0.03l-0.03-.06h-0.07a1.463,1.463,0,0,0-.09-0.13h-0.07a1.463,1.463,0,0,0-.09-0.13h-0.07c-0.02-.03-0.04-0.07-0.06-0.1h-0.04l-0.03-.06h-0.06c-0.06-.07-0.11-0.13-0.16-0.2h-0.07c-0.04-.05-0.08-0.1-0.13-0.16l-0.25-.19-0.29-.32h-0.07c-0.09-.1-0.17-0.2-0.26-0.29a3.584,3.584,0,0,0-.29-0.26v-0.07c-0.14-.13-0.28-0.25-0.42-0.38-0.01-.04-0.02-0.07-0.03-0.1-0.08-.08-0.17-0.15-0.26-0.23v-0.06c-0.05-.04-0.1-0.09-0.16-0.13v-0.06a1.01,1.01,0,0,0-.16-0.13v-0.07a1.826,1.826,0,0,1-.16-0.13v-0.06a1.132,1.132,0,0,1-.13-0.1v-0.06c-0.03-.02-0.06-0.04-0.1-0.07v-0.06l-0.09-.06v-0.07a1.132,1.132,0,0,1-.13-0.1v-0.06a0.488,0.488,0,0,0-.07-0.03v-0.07l-0.09-.06v-0.07c-0.03-.02-0.07-0.04-0.1-0.06v-0.07l-0.06-.03v-0.06h-0.04c-0.01-.03-0.02-0.07-0.03-0.1l-0.06-.03v-0.07c-0.03-.02-0.07-0.04-0.1-0.06v-0.06a0.209,0.209,0,0,0-.06-0.04,0.355,0.355,0,0,0-.04-0.09h-0.03c-0.01-.05-0.02-0.09-0.03-0.13l-0.06-.03v-0.07a0.488,0.488,0,0,1-.07-0.03v-0.07l-0.06-.03a0.929,0.929,0,0,0-.04-0.13h-0.03l-0.03-.09c-0.02-.01-0.04-0.03-0.06-0.04v-0.06h-0.04v-0.06a0.209,0.209,0,0,0-.06-0.04,1.458,1.458,0,0,0-.07-0.19l-0.06-.03v-0.07h-0.03v-0.06c-0.02-.01-0.05-0.02-0.07-0.03v-0.07h-0.03v-0.06h-0.03v-0.07l-0.07-.06v-0.07l-0.06-.03v-0.06l-0.06-.07v-0.06h-0.04v-0.07h-0.03v-0.06h-0.03v-0.07h-0.03v-0.06h-0.04c-0.01-.04-0.02-0.09-0.03-0.13h-0.03v-0.06h-0.03v-0.07h-0.03v-0.06h-0.04v-0.07h-0.03v-0.06h-0.03c-0.01-.04-0.02-0.09-0.03-0.13h-0.04v-0.06h-0.03v-0.1h-0.03v-0.07h-0.03c-0.01-.04-0.02-0.08-0.03-0.13h-0.04v-0.09h-0.03c-0.01-.04-0.02-0.09-0.03-0.13h-0.03v-0.1h-0.04c-0.01-.04-0.02-0.08-0.03-0.13h-0.03v-0.09h-0.03v-0.07h-0.03a0.936,0.936,0,0,1-.04-0.16h-0.03c-0.01-.06-0.02-0.13-0.03-0.19h-0.03v-0.07h-0.04c-0.01-.06-0.02-0.13-0.03-0.19h-0.03v-0.06h-0.03c-0.02-.1-0.05-0.2-0.07-0.29h-0.03v-0.1h-0.03v-0.1h-0.03v-0.1h-0.04v-0.09h-0.03v-0.1h-0.03v-0.1h-0.03v-0.09h-0.03v-0.13h-0.04v-0.1h-0.03v-0.13h-0.03v-0.09h-0.03c-0.01-.08-0.03-0.15-0.04-0.23h-0.03c-0.01-.08-0.02-0.17-0.03-0.26h-0.03a2.166,2.166,0,0,0-.04-0.25h-0.03v-0.17h-0.03c-0.01-.09-0.02-0.19-0.03-0.29h-0.03v-0.13h-0.04v-0.16h-0.03c-0.01-.11-0.02-0.23-0.03-0.35h-0.03c-0.01-.13-0.02-0.26-0.04-0.39h-0.03v-0.19h-0.03v-0.23h-0.03v-0.25h-0.03v-0.3h-0.04v-0.29h-0.03v-0.38h-0.03v-0.52a3.46,3.46,0,0,1-.03-0.8,4.9,4.9,0,0,1,.03-1.16v-0.33a2.649,2.649,0,0,1,.06-0.58v-0.32c0.11-.36.09-0.81,0.2-1.16v-0.19c0.1-.33.15-0.75,0.25-1.07,0.03-.14.05-0.28,0.07-0.42h0.03c0.02-.12.04-0.23,0.07-0.35h0.03c0.01-.08.02-0.15,0.03-0.23h0.03v-0.09h0.04v-0.1h0.03v-0.13h0.03v-0.1h0.03v-0.09h0.03v-0.1h0.04v-0.1h0.03v-0.09h0.03v-0.1h0.03c0.02-.1.05-0.19,0.07-0.29h0.03v-0.06h0.03c0.01-.07.02-0.13,0.03-0.2h0.04v-0.06h0.03v-0.1h0.03v-0.06h0.03a1.416,1.416,0,0,1,.04-0.2h0.03c0.01-.04.02-0.08,0.03-0.13h0.03v-0.09h0.03v-0.07h0.04v-0.09h0.03c0.01-.05.02-0.09,0.03-0.13h0.03v-0.1h0.04c0.02-.06.04-0.13,0.06-0.19h0.03c0.01-.06.02-0.11,0.03-0.16h0.04v-0.07h0.03c0.01-.04.02-0.09,0.03-0.13h0.03v-0.06h0.04v-0.07h0.03v-0.06h0.03v-0.07h0.03v-0.06h0.03v-0.06h0.04v-0.07h0.03v-0.06h0.03v-0.07h0.03v-0.06l0.07-.07v-0.06l0.06-.03v-0.07h0.03v-0.06h0.04v-0.07l0.06-.06v-0.07a0.488,0.488,0,0,1,.07-0.03c0.02-.06.04-0.13,0.06-0.19l0.06-.03a0.929,0.929,0,0,0,.04-0.13,0.209,0.209,0,0,0,.06-0.04l0.03-.12a0.251,0.251,0,0,1,.07-0.04c0.01-.04.02-0.08,0.03-0.13l0.06-.03v-0.06h0.04v-0.07l0.06-.03v-0.06a0.435,0.435,0,0,1,.07-0.04v-0.06l0.06-.03v-0.07h0.03l0.03-.09a0.435,0.435,0,0,0,.07-0.04v-0.06l0.06-.03v-0.07c0.02-.01.05-0.02,0.07-0.03v-0.06h0.03c0.01-.04.02-0.07,0.03-0.1,0.02-.01.05-0.02,0.07-0.03v-0.07l0.09-.06v-0.07a0.488,0.488,0,0,0,.07-0.03v-0.06a0.209,0.209,0,0,0,.06-0.04l0.03-.09a0.865,0.865,0,0,0,.1-0.07V2951a0.607,0.607,0,0,0,.1-0.07v-0.06l0.09-.06v-0.07a0.642,0.642,0,0,0,.13-0.1v-0.06a0.642,0.642,0,0,0,.13-0.1v-0.06a1.47,1.47,0,0,0,.13-0.1v-0.06c0.06-.05.11-0.09,0.16-0.13v-0.07c0.08-.06.15-0.13,0.23-0.19v-0.06c0.08-.08.17-0.15,0.26-0.23v-0.06a0.55,0.55,0,0,1,.09-0.07c0.07-.07.13-0.15,0.2-0.22a3.584,3.584,0,0,1,.29-0.26v-0.07c0.07-.05.15-0.1,0.22-0.16,0.17-.18.35-0.36,0.52-0.55h0.06c0.08-.08.15-0.17,0.23-0.25h0.06v-0.04a1.463,1.463,0,0,0,.13-0.09,0.359,0.359,0,0,1,.07-0.1h0.06l0.13-.16h0.06a1.132,1.132,0,0,0,.1-0.13h0.06a1.132,1.132,0,0,0,.1-0.13h0.07a1.463,1.463,0,0,0,.09-0.13h0.07l0.06-.09h0.07a0.879,0.879,0,0,1,.06-0.1h0.06a0.607,0.607,0,0,0,.07-0.1c0.03-.01.06-0.02,0.1-0.03l0.03-.06h0.06a0.488,0.488,0,0,1,.03-0.07h0.07a0.879,0.879,0,0,0,.06-0.1h0.07l0.03-.06c0.03-.01.06-0.02,0.1-0.03v-0.04h0.06l0.03-.06h0.07l0.03-.06h0.06a0.574,0.574,0,0,0,.04-0.07h0.06l0.03-.06h0.07c0.01-.02.02-0.05,0.03-0.07h0.06a0.209,0.209,0,0,0,.04-0.06h0.06a0.488,0.488,0,0,0,.03-0.07h0.07V2946h0.06l0.03-.06a0.5,0.5,0,0,0,.13-0.04c0.01-.02.03-0.04,0.04-0.06l0.12-.03a0.161,0.161,0,0,0,.04-0.07c0.04-.01.08-0.02,0.13-0.03l0.03-.06c0.06-.02.13-0.05,0.19-0.07l0.03-.06h0.07v-0.03h0.06v-0.04h0.07l0.06-.06h0.07a0.488,0.488,0,0,0,.03-0.07c0.17-.07.34-0.15,0.51-0.22v-0.03h0.07v-0.04h0.06V2945h0.07v-0.03h0.06v-0.03c0.07-.02.13-0.05,0.2-0.07v-0.03c0.05-.01.1-0.02,0.16-0.03v-0.03a1.458,1.458,0,0,1,.19-0.07v-0.03h0.1v-0.03c0.04-.01.08-0.02,0.13-0.03v-0.04h0.09v-0.03h0.07v-0.03h0.09v-0.03c0.05-.01.09-0.03,0.13-0.04v-0.03l0.2-.03v-0.03h0.06v-0.04c0.61-.2,1.22-0.4,1.84-0.61l0.25-.03v-0.03h0.1v-0.03h0.13v-0.04h0.13v-0.03l0.42-.06v-0.04l0.32-.03c0.26-.08.6-0.11,0.87-0.19h0.23v-0.03h0.22v-0.04h0.23v-0.03h0.29v-0.03h0.32v-0.03h0.35v-0.03A1.869,1.869,0,0,0,1129.03,2943Zm-1.67,13.83a3.468,3.468,0,0,1-.68.07v0.03h-0.19v0.03h-0.16V2957h-0.17v0.03h-0.09v0.03h-0.1v0.03h-0.1v0.03h-0.06v0.04h-0.1l-0.03.06-0.13.03a0.879,0.879,0,0,1-.06.1h-0.07a0.879,0.879,0,0,0-.06.1,0.524,0.524,0,0,0-.26.45c0.04,0.03.01-.01,0.03,0.03a1.7,1.7,0,0,1,.68.16v0.03h0.06v0.04c0.05,0.01.09,0.02,0.13,0.03a0.209,0.209,0,0,0,.04.06h0.06c0.04,0.06.09,0.11,0.13,0.16a0.359,0.359,0,0,0,.1.07v0.06a0.209,0.209,0,0,1,.06.04v0.06h0.03c0.01,0.04.02,0.09,0.03,0.13h0.04c0.02,0.1.04,0.19,0.06,0.29h0.03c0.01,0.11.02,0.21,0.04,0.32h0.03c0.01,0.19.02,0.39,0.03,0.58h0.03v0.78a3.57,3.57,0,0,1,0,1.22l-0.03.87h-0.03v0.23h-0.03a3.106,3.106,0,0,0-.04.32h-0.03v0.13h-0.03c-0.01.06-.02,0.13-0.03,0.19h-0.04c-0.01.04-.02,0.09-0.03,0.13h-0.03v0.07l-0.06.03v0.06h-0.04c-0.02.03-.04,0.07-0.06,0.1a0.488,0.488,0,0,0-.13.06,1.023,1.023,0,0,1-.39,0v-0.03h-0.06v-0.03l-0.13-.03a0.488,0.488,0,0,0-.03-0.07h-0.07a1.463,1.463,0,0,1-.09-0.13h-0.07l-0.03-.06c-0.06-.06-0.13-0.11-0.19-0.16v-0.07c-0.07-.05-0.13-0.1-0.2-0.16v-0.06a0.642,0.642,0,0,0-.13-0.1v-0.06a0.55,0.55,0,0,0-.09-0.07,0.689,0.689,0,0,0-.04-0.1l-0.06-.03v-0.06l-0.06-.03v-0.07h-0.04c-0.01-.03-0.02-0.06-0.03-0.1l-0.06-.03v-0.06a0.865,0.865,0,0,1-.1-0.07c-0.01-.04-0.02-0.08-0.03-0.13a0.488,0.488,0,0,0-.07-0.03v-0.06l-0.06-.03v-0.07a0.488,0.488,0,0,0-.07-0.03v-0.07l-0.06-.03c-0.01-.04-0.02-0.08-0.03-0.13h-0.03c-0.01-.03-0.03-0.06-0.04-0.09-0.02-.01-0.04-0.03-0.06-0.04v-0.06h-0.03v-0.06a0.251,0.251,0,0,0-.07-0.04c-0.01-.04-0.02-0.08-0.03-0.13l-0.06-.03a1.458,1.458,0,0,1-.07-0.19l-0.06-.03a0.5,0.5,0,0,0-.04-0.13,0.209,0.209,0,0,1-.06-0.04c-0.02-.06-0.04-0.12-0.06-0.19a0.488,0.488,0,0,1-.07-0.03v-0.07h-0.03v-0.06l-0.07-.06v-0.07l-0.06-.03v-0.07l-0.06-.06v-0.06h-0.04v-0.07h-0.03v-0.06h-0.03v-0.07h-0.03v-0.06h-0.04c-0.01-.05-0.02-0.09-0.03-0.13h-0.03c-0.01-.04-0.02-0.09-0.03-0.13h-0.03v-0.06h-0.04v-0.07h-0.03v-0.06h-0.03v-0.07h-0.03v-0.06h-0.04c-0.01-.05-0.02-0.09-0.03-0.13h-0.03v-0.07h-0.03v-0.09h-0.03a1.587,1.587,0,0,1-.07-0.2h-0.03v-0.06h-0.03v-0.1h-0.04c-0.01-.04-0.02-0.08-0.03-0.13h-0.03v-0.06h-0.03v-0.1h-0.03a0.5,0.5,0,0,1-.04-0.13h-0.03v-0.09h-0.03v-0.07h-0.03v-0.09h-0.04c-0.02-.07-0.04-0.13-0.06-0.2h-0.03c-0.01-.04-0.02-0.08-0.03-0.13a0.879,0.879,0,0,1-.1-0.06v-0.07h-0.03c-0.02-.03-0.05-0.06-0.07-0.09h-0.06c-0.01-.02-0.02-0.05-0.03-0.07h-0.07v-0.03l-0.13-.03v-0.03c-0.06-.01-0.13-0.03-0.19-0.04v-0.03a4.291,4.291,0,0,0-1.29,0h-2.32a1.235,1.235,0,0,0-1.1.32h-0.03v0.07h-0.03v0.39h0.03c0.02,0.09.04,0.19,0.07,0.29h0.03l0.03,0.12h0.03v0.07h0.03v0.1h0.04v0.06h0.03v0.06h0.03c0.01,0.05.02,0.09,0.03,0.13h0.04c0.01,0.06.02,0.11,0.03,0.16h0.03c0.01,0.05.02,0.09,0.03,0.13h0.03a0.929,0.929,0,0,1,.04.13h0.03v0.1h0.03v0.06h0.03v0.07h0.04v0.06h0.03v0.07h0.03v0.06h0.03c0.02,0.07.05,0.13,0.07,0.2h0.03l0.03,0.12h0.03v0.1h0.04v0.07h0.03l0.03,0.12h0.03v0.07h0.03v0.06h0.04v0.07h0.03v0.06h0.03v0.07h0.03a0.929,0.929,0,0,0,.04.13h0.03v0.06h0.03v0.06h0.03v0.07h0.03v0.06l0.07,0.07c0.01,0.04.02,0.08,0.03,0.13a0.488,0.488,0,0,0,.07.03v0.06h0.03c0.01,0.05.02,0.09,0.03,0.13h0.03c0.01,0.05.02,0.09,0.03,0.13h0.04v0.07h0.03v0.06h0.03v0.07l0.07,0.06c0.01,0.04.02,0.09,0.03,0.13l0.06,0.03v0.07l0.07,0.06v0.06h0.03v0.07l0.06,0.06v0.07a0.488,0.488,0,0,1,.07.03c0.02,0.06.04,0.13,0.06,0.19h0.03v0.07a0.488,0.488,0,0,1,.07.03v0.06h0.03v0.07l0.07,0.06v0.07l0.06,0.03v0.06h0.03v0.07l0.07,0.06v0.07l0.06,0.03a1.066,1.066,0,0,0,.07.19c0.02,0.01.04,0.03,0.06,0.04,0.01,0.04.02,0.08,0.03,0.13,0.02,0.01.05,0.02,0.07,0.03,0.02,0.06.04,0.13,0.06,0.19a0.488,0.488,0,0,0,.07.03v0.07h0.03v0.06l0.06,0.03c0.01,0.05.02,0.09,0.03,0.13a0.161,0.161,0,0,1,.07.04l0.03,0.12a0.161,0.161,0,0,0,.07.04c0.01,0.04.02,0.08,0.03,0.13h0.03l0.03,0.09c0.02,0.01.05,0.02,0.07,0.03,0.01,0.05.02,0.09,0.03,0.13h0.03c0.01,0.04.02,0.07,0.03,0.1a0.488,0.488,0,0,1,.07.03c0.01,0.05.02,0.09,0.03,0.13l0.06,0.03v0.07h0.04c0.01,0.03.02,0.06,0.03,0.1l0.06,0.03v0.06a0.488,0.488,0,0,1,.07.03c0.01,0.04.02,0.07,0.03,0.1h0.03a0.647,0.647,0,0,0,.04.13l0.06,0.03v0.07a0.879,0.879,0,0,0,.1.06v0.07l0.06,0.03v0.06a0.488,0.488,0,0,0,.07.03v0.07h0.03c0.01,0.03.02,0.06,0.03,0.1l0.06,0.03v0.06a0.865,0.865,0,0,1,.1.07v0.06h0.03a0.418,0.418,0,0,0,.04.1l0.06,0.03v0.06a0.209,0.209,0,0,0,.06.04c0.01,0.03.03,0.06,0.04,0.09a0.55,0.55,0,0,0,.09.07v0.06a0.865,0.865,0,0,1,.1.07v0.06c0.03,0.02.06,0.04,0.1,0.07v0.06l0.09,0.06v0.07a0.642,0.642,0,0,1,.13.1l0.03,0.09a0.161,0.161,0,0,1,.07.04v0.06l0.16,0.13v0.06a0.209,0.209,0,0,1,.06.04v0.03a0.488,0.488,0,0,1,.07.03v0.06a0.642,0.642,0,0,0,.13.1v0.03a0.209,0.209,0,0,1,.06.04v0.06c0.1,0.09.2,0.17,0.29,0.26v0.06c0.07,0.06.13,0.11,0.2,0.16,0.16,0.18.32,0.35,0.48,0.52h0.06l0.23,0.26h0.06a0.642,0.642,0,0,1,.1.13h0.06a0.642,0.642,0,0,1,.1.13h0.07l0.09,0.12h0.07a0.488,0.488,0,0,0,.03.07h0.06a0.359,0.359,0,0,1,.07.1h0.06l0.03,0.06h0.07l0.03,0.06h0.07a0.488,0.488,0,0,0,.03.07h0.06l0.03,0.06h0.07c0.01,0.02.02,0.05,0.03,0.07l0.13,0.03,0.03,0.06a0.929,0.929,0,0,0,.13.04l0.03,0.06h0.07l0.06,0.07h0.07v0.03h0.06v0.03h0.07v0.03h0.06v0.03h0.07v0.04h0.06v0.03h0.06v0.03h0.07v0.03c0.04,0.01.08,0.03,0.13,0.04v0.03h0.06v0.03h0.1v0.03c0.04,0.01.08,0.02,0.13,0.03v0.04c0.05,0.01.1,0.02,0.16,0.03v0.03l0.19,0.03a7.946,7.946,0,0,0,3.22.55h1.23a1.075,1.075,0,0,0,.81-0.55v-0.09h0.03v-0.13h0.03v-0.58h0.03v-0.36h0.03v-0.22h0.04v-0.2h0.03v-0.12h0.03v-0.13h0.03v-0.1h0.04v-0.1H1132v-0.09h0.03c0.02-.07.04-0.13,0.06-0.2h0.04c0.01-.04.02-0.08,0.03-0.13l0.06-.03v-0.06a0.251,0.251,0,0,0,.07-0.04c0.05-.06.11-0.12,0.16-0.19a0.853,0.853,0,0,1,.58-0.13c0.15,0.08.3,0.15,0.45,0.23l0.06,0.09h0.07c0.05,0.07.11,0.13,0.16,0.2h0.06c0.06,0.06.11,0.13,0.17,0.19l0.06,0.03v0.07c0.12,0.11.24,0.21,0.35,0.32v0.07h0.04l0.06,0.09,0.13,0.1v0.06l0.1,0.07a1.463,1.463,0,0,1,.09.13h0.04v0.06c0.08,0.08.17,0.15,0.25,0.23v0.06l0.39,0.36c0.1,0.1.19,0.21,0.29,0.32h0.07c0.04,0.05.08,0.11,0.12,0.16,0.04,0.01.07,0.02,0.1,0.03a0.488,0.488,0,0,1,.03.07h0.07l0.03,0.06c0.03,0.01.06,0.02,0.1,0.03v0.04c0.04,0.01.08,0.02,0.13,0.03l0.03,0.06c0.04,0.01.08,0.02,0.13,0.03v0.04c0.04,0.01.08,0.02,0.13,0.03v0.03c0.05,0.01.1,0.02,0.16,0.03v0.04l0.19,0.03v0.03l0.26,0.03v0.03h0.22v0.04c0.35-.01.69-0.02,1.03-0.04a5.512,5.512,0,0,0,1.23-.03h1.71v-0.03h0.19v-0.03h0.13v-0.03h0.1v-0.04h0.09v-0.03c0.05-.01.09-0.02,0.13-0.03v-0.03c0.05-.01.09-0.03,0.13-0.04,0.08-.08.15-0.17,0.23-0.25h0.03v-0.07a0.822,0.822,0,0,0,.06-0.51h-0.03v-0.13h-0.03v-0.07h-0.03a0.936,0.936,0,0,0-.04-0.16l-0.06-.03v-0.07h-0.03c-0.02-.06-0.05-0.12-0.07-0.19l-0.06-.03v-0.07a0.488,0.488,0,0,0-.07-0.03v-0.06l-0.06-.03c-0.05-.1-0.11-0.2-0.16-0.29a0.161,0.161,0,0,0-.07-0.04l-0.03-.09c-0.02-.01-0.04-0.03-0.06-0.04v-0.06a1.47,1.47,0,0,1-.13-0.1v-0.06l-0.16-.13v-0.07c-0.07-.05-0.13-0.1-0.2-0.16v-0.06c-0.11-.11-0.23-0.22-0.35-0.32v-0.07c-0.11-.09-0.22-0.19-0.32-0.29a6.862,6.862,0,0,0-.68-0.64l-0.42-.45h-0.06l-0.36-.39a2.733,2.733,0,0,1-.8-1.03,1.369,1.369,0,0,1,.06-0.62h0.03c0.01-.04.03-0.08,0.04-0.12h0.03c0.02-.07.04-0.13,0.06-0.2,0.02-.01.05-0.02,0.07-0.03v-0.06h0.03v-0.07h0.03c0.01-.03.02-0.06,0.03-0.1a0.488,0.488,0,0,0,.07-0.03v-0.06c0.03-.02.06-0.05,0.09-0.07v-0.06a0.488,0.488,0,0,0,.07-0.03v-0.07a0.879,0.879,0,0,1,.1-0.06v-0.07l0.09-.06v-0.07c0.03-.02.07-0.04,0.1-0.06v-0.06a1.132,1.132,0,0,1,.13-0.1c0.01-.03.02-0.07,0.03-0.1l0.06-.03v-0.07a0.488,0.488,0,0,0,.07-0.03l0.03-.09a1.132,1.132,0,0,1,.13-0.1v-0.07c0.03-.02.07-0.04,0.1-0.06v-0.06a0.209,0.209,0,0,1,.06-0.04l0.03-.09c0.05-.04.09-0.07,0.13-0.1v-0.06c0.04-.03.07-0.05,0.1-0.07v-0.06a0.865,0.865,0,0,1,.1-0.07v-0.06c0.03-.02.06-0.05,0.09-0.07v-0.06a1.47,1.47,0,0,0,.13-0.1v-0.06c0.03-.02.07-0.05,0.1-0.07v-0.06c0.03-.02.06-0.04,0.1-0.07v-0.06l0.06-.03v-0.07a0.879,0.879,0,0,1,.1-0.06v-0.07l0.09-.06v-0.07a0.879,0.879,0,0,0,.1-0.06v-0.06h0.03c0.01-.04.02-0.07,0.03-0.1a0.488,0.488,0,0,0,.07-0.03v-0.07a0.879,0.879,0,0,1,.1-0.06v-0.07l0.06-.03c0.01-.03.02-0.06,0.03-0.1h0.03v-0.06a0.488,0.488,0,0,0,.07-0.03v-0.07l0.06-.03v-0.06a0.251,0.251,0,0,0,.07-0.04v-0.06l0.06-.03v-0.07c0.02-.01.05-0.02,0.07-0.03v-0.06a0.209,0.209,0,0,0,.06-0.04v-0.06a0.488,0.488,0,0,1,.07-0.03v-0.07h0.03v-0.06l0.06-.03c0.01-.05.02-0.09,0.03-0.13a0.488,0.488,0,0,0,.07-0.03c0.02-.07.04-0.13,0.06-0.2,0.02-.01.05-0.02,0.07-0.03v-0.07l0.06-.06v-0.06h0.03v-0.07h0.04v-0.06h0.03v-0.07h0.03v-0.06h0.03c0.02-.07.05-0.13,0.07-0.2h0.03v-0.09h0.03v-0.07h0.03v-0.09h0.04v-0.1h0.03v-0.13h0.03v-0.13h0.03a1.183,1.183,0,0,0-.06-0.58,1.132,1.132,0,0,1-.13-0.1v-0.03c-0.06-.02-0.13-0.04-0.19-0.06v-0.03a3.972,3.972,0,0,0-1.26-.07h-2.29v0.03h-0.39a4.022,4.022,0,0,0-1.64.13c-0.02.03-.04,0.07-0.06,0.1h-0.04v0.06a0.55,0.55,0,0,1-.09.07c-0.03.09-.07,0.19-0.1,0.29h-0.03v0.06h-0.03a0.749,0.749,0,0,1-.04.16h-0.03v0.1h-0.03v0.07h-0.03v0.09h-0.03a0.929,0.929,0,0,0-.04.13h-0.03v0.1h-0.03v0.06h-0.03c-0.01.05-.03,0.09-0.04,0.13h-0.03v0.1h-0.03v0.06h-0.03c-0.01.05-.02,0.09-0.03,0.13h-0.04v0.1h-0.03v0.06h-0.03c-0.01.05-.02,0.09-0.03,0.13h-0.04c-0.01.04-.02,0.09-0.03,0.13h-0.03c-0.01.04-.02,0.09-0.03,0.13h-0.03v0.06h-0.04v0.07h-0.03v0.06h-0.03v0.07h-0.03v0.06h-0.04v0.07h-0.03v0.06h-0.03v0.07h-0.03v0.06h-0.03v0.06l-0.07.07v0.06a0.209,0.209,0,0,0-.06.04v0.06h-0.04v0.06l-0.06.07v0.06a0.209,0.209,0,0,0-.06.04v0.06h-0.04v0.06a0.209,0.209,0,0,1-.06.04v0.06h-0.03v0.07a0.488,0.488,0,0,0-.07.03c-0.01.04-.02,0.08-0.03,0.13l-0.06.03a0.647,0.647,0,0,0-.04.13l-0.06.03v0.07h-0.03v0.06a0.488,0.488,0,0,0-.07.03v0.07l-0.06.03v0.06a0.251,0.251,0,0,0-.07.04l-0.03.12h-0.03c-0.01.04-.02,0.07-0.03,0.1a0.488,0.488,0,0,0-.07.03v0.07h-0.03l-0.03.09a0.251,0.251,0,0,1-.07.04v0.06a0.55,0.55,0,0,0-.09.07v0.06a0.488,0.488,0,0,0-.07.03v0.07a0.879,0.879,0,0,1-.1.06v0.07l-0.09.06v0.06a0.161,0.161,0,0,1-.07.04l-0.03.09a0.642,0.642,0,0,1-.13.1v0.06c-0.06.06-.13,0.11-0.19,0.17v0.06c-0.08.07-.15,0.13-0.23,0.19a0.879,0.879,0,0,1-.06.1,0.86,0.86,0,0,1-.77.26,0.326,0.326,0,0,1-.17-0.13,2.217,2.217,0,0,1-.38-1.61c0.01-.82.02-1.64,0.03-2.45h0.03v-0.87h0.03c-0.01-.33-0.02-0.65-0.03-0.97h-0.03v-0.19h-0.03v-0.13h-0.03v-0.1h-0.04c-0.01-.04-0.02-0.09-0.03-0.13h-0.03v-0.06c-0.07-.06-0.13-0.11-0.19-0.16-0.03-.04-0.05-0.07-0.07-0.1h-0.06a0.435,0.435,0,0,1-.04-0.07h-0.09v-0.03h-0.07v-0.03h-0.09v-0.03h-0.13V2957h-0.13v-0.04h-0.16v-0.03h-0.16v-0.03h-0.23v-0.03h-0.42a3.431,3.431,0,0,0-.8-0.04h-1.58Z" transform="translate(-1110.03 -2943)"/>
</svg>
